<?xml version="1.0" encoding="UTF-8" standalone="no"?>
<!-- Created with Inkscape (http://www.inkscape.org/) -->

<svg
   xmlns:dc="http://purl.org/dc/elements/1.1/"
   xmlns:cc="http://creativecommons.org/ns#"
   xmlns:rdf="http://www.w3.org/1999/02/22-rdf-syntax-ns#"
   xmlns:svg="http://www.w3.org/2000/svg"
   xmlns="http://www.w3.org/2000/svg"
   version="1.1"
   width="744.09448"
   height="1052.3622"
   id="svg6784">
  <defs
     id="defs6786" />
  <metadata
     id="metadata6789">
    <rdf:RDF>
      <cc:Work
         rdf:about="">
        <dc:format>image/svg+xml</dc:format>
        <dc:type
           rdf:resource="http://purl.org/dc/dcmitype/StillImage" />
        <dc:title></dc:title>
      </cc:Work>
    </rdf:RDF>
  </metadata>
  <g
     id="layer1">
    <path
       d="m 265.93457,109.97042 c -0.86427,-1.35804 -2.41334,-2.57446 -4.646,-3.42164 0,0 -41.31104,-6.897574 -41.31104,-6.897574 -2.24365,-0.802013 -5.27588,-3.84705 -7.84668,-6.735849 -2.26441,8.599863 -7.03857,16.345823 -11.88965,23.480223 2.61475,0.53773 5.40528,0.8783 8.32519,1.04554 4.20899,0.23926 8.69264,0.12212 13.2959,-0.26978 5.6958,-0.48706 9.75098,0.28504 14.47144,1.18287 4.38599,0.83373 9.3274,1.77185 16.54785,1.96593 6.20727,0.16663 10.3772,-1.53503 12.40112,-3.80981 0.87403,-0.98389 1.37208,-2.07825 1.48804,-3.19764 0.11713,-1.13707 -0.15991,-2.28148 -0.83617,-3.34227 z"
       id="path5924"
       style="fill:#231f20;fill-opacity:1;fill-rule:nonzero;stroke:none" />
    <path
       d="m 264.00585,111.20332 c -1.04492,-1.6394 -3.61083,-3.0249 -7.76611,-3.45214 -3.43262,-0.35279 -6.44531,-0.5835 -9.25294,-0.79835 -8.55712,-0.6549 -15.20385,-1.16394 -26.02295,-4.52086 -3.5083,-1.08826 -6.604,-3.753664 -9.58496,-6.958013 -2.20459,6.779783 -5.87524,13.021233 -9.74852,18.853763 2.23388,0.40894 4.5996,0.6781 7.07031,0.8197 4.10644,0.23437 8.48144,0.12025 12.97119,-0.26184 5.98632,-0.51087 10.19165,0.28869 15.08911,1.21948 4.26635,0.81177 9.07349,1.72485 16.18286,1.9159 5.4663,0.1477 9.00879,-1.21094 10.62744,-3.03284 0.54199,-0.60853 0.84839,-1.26099 0.91552,-1.90796 0.0659,-0.62867 -0.0952,-1.27198 -0.48095,-1.87684 z"
       id="path5926"
       style="fill:#ffffff;fill-opacity:1;fill-rule:nonzero;stroke:none" />
    <path
       d="m 184.24023,59.425982 c -1.43433,-2.507938 -2.66603,-3.81775 -4.0271,-3.980713 -1.37818,-0.1648 -2.58668,0.782475 -3.92945,2.795413 -0.50903,-0.01825 -1.0205,-0.02812 -1.53809,-0.02862 -1.31835,-2.622688 -2.47314,-3.963013 -3.91357,-3.971563 0,0 -0.005,0 -0.005,0 -1.51612,-0.0075 -2.91504,1.54175 -4.73755,4.70765 -0.28932,0.04638 -0.58105,0.09587 -0.87159,0.146475 -2.27173,-2.637325 -3.88549,-3.8507 -5.33325,-3.60595 -1.60156,0.270988 -2.53661,2.120363 -3.43139,5.595088 0,0 0.14038,0.03663 0.14038,0.03663 -0.30518,0.08788 -0.60792,0.177612 -0.91065,0.269162 0,0 0.22461,-0.2008 0.22461,-0.2008 -1.99829,-2.2522 -3.54004,-3.229987 -5.03418,-2.787475 -1.95557,0.577388 -3.30079,4.022825 -3.52051,5.861813 -0.43456,0.167237 -0.8667,0.336912 -1.29639,0.507812 0,0 -0.70556,-0.348512 -0.70556,-0.348512 -2.49878,-1.672363 -4.22851,-2.260738 -5.54444,-1.645513 -1.01074,0.925913 -1.68579,2.919313 -2.13379,5.641488 -1.33301,0.626825 -3.4497,-4.353025 -6.67602,-2.581788 -1.38305,0.758663 -1.90796,2.9779 -2.09473,7.000725 0,0 0.009,6.13e-4 0.009,6.13e-4 -0.0366,0.0195 -0.072,0.039 -0.10862,0.05738 -3.06763,-1.569213 -5.04639,-2.033688 -6.35376,-1.187138 -1.25854,0.817263 -1.60767,2.624513 -1.4209,5.6073 -0.11963,0.07075 -0.23438,0.1416 -0.35157,0.211188 -3.0249,-1.796875 -4.98046,-2.495125 -6.31835,-1.723025 -1.34155,0.777587 -1.67236,2.785037 -1.41723,6.37695 -0.36378,0.203862 -0.7312,0.408937 -1.09985,0.612187 -2.65382,-1.517337 -4.44459,-2.011112 -5.72267,-1.333012 -1.30371,0.69275 -1.79443,2.385862 -1.82983,5.227662 -0.20874,0.101375 -0.4187,0.20325 -0.62867,0.304563 -2.66845,-1.798088 -4.467771,-2.556763 -5.798331,-1.99645 -1.38917,0.5841 -1.91407,2.340687 -1.95557,5.541987 -0.42236,0.183713 -0.84717,0.368038 -1.27197,0.55115 -2.96631,-1.8573 -4.93164,-2.57935 -6.32813,-2.000737 -1.47095,0.61035 -2.0227,2.37305 -2.08983,5.454712 -0.17335,0.069 -0.34669,0.136113 -0.52003,0.20325 -2.62451,-1.837162 -4.41162,-2.66235 -5.75195,-2.214362 -1.43555,0.480962 -2.03004,2.127087 -2.15332,5.189211 -0.0756,0.02813 -0.15137,0.05488 -0.22705,0.083 -2.33399,-1.9043 -3.9978,-2.652586 -5.36499,-2.159424 -1.37574,0.498049 -2.12891,2.117924 -2.6355,4.943851 -0.18189,0.0597 -0.36133,0.11962 -0.54078,0.18066 -2.45238,-2.360224 -4.15648,-3.450924 -5.60912,-3.031012 -1.47705,0.428475 -2.26808,2.260138 -2.85035,5.733042 -4.03198,1.23107 -7.87475,2.32361 -11.40503,3.2489 0,0 -0.17822,2.00683 -0.17822,2.00683 20.06347,9.20105 31.47461,8.48205 45.9021,7.02332 3.0188,-0.14527 6.026611,-0.45044 9.022221,-0.88318 4.62158,-0.39979 9.68018,-0.70862 15.43456,-0.70251 5.91309,0.005 12.61964,0.60607 19.57764,1.22864 26.55518,2.3767 56.69923,5.07567 63.78663,-22.949841 0.96435,-3.811637 1.05713,-7.634887 0.3601,-11.376337 -0.7141,-3.833013 -2.25464,-7.568363 -4.5288,-11.11145 -3.61206,-5.625 -8.56445,-8.925175 -14.29321,-10.529175 0,0 0,0 0,0 z"
       id="path5928"
       style="fill:#231f20;fill-opacity:1;fill-rule:nonzero;stroke:none" />
    <path
       d="m 106.45946,85.616169 c 0.0684,-1.310425 0.26489,-2.059937 0.65674,-2.26685 0.42114,-0.223387 1.2268,0.0012 2.48901,0.6488 -1.02661,0.542613 -2.07641,1.082775 -3.14575,1.61805 0,0 0,0 0,0 z m -8.392331,3.967888 c 0.0549,-1.608275 0.23803,-2.45605 0.62133,-2.619013 0.43092,-0.179437 1.313481,0.20935 2.711191,1.0968 -1.0962,0.513313 -2.209471,1.020513 -3.332521,1.522213 0,0 0,0 0,0 z m -9.69605,4.102175 c 0.0745,-1.571038 0.29053,-2.435913 0.74707,-2.625725 0.52735,-0.217288 1.52466,0.145875 3.0957,1.052237 -1.27196,0.532838 -2.55371,1.05775 -3.84277,1.573488 0,0 0,0 0,0 z m -8.41187,3.240361 c 0.0904,-1.477049 0.28809,-2.243049 0.6604,-2.366949 0.44923,-0.15075 1.31593,0.245975 2.65625,1.121825 -1.10595,0.421762 -2.21068,0.836799 -3.31665,1.245124 0,0 0,0 0,0 z m -8.06885,2.872925 c 0.28688,-1.28235 0.60914,-1.994637 1.0315,-2.148437 0.43458,-0.15625 1.16944,0.180662 2.27173,0.998537 -1.10474,0.391225 -2.20703,0.773925 -3.30323,1.1499 0,0 0,0 0,0 z m -9.04173,2.963862 c 0.35156,-1.87439 0.70067,-2.841187 1.15722,-2.972412 0.46996,-0.1361 1.34521,0.465702 2.71484,1.735842 -1.30371,0.4242 -2.59521,0.83618 -3.87206,1.23657 0,0 0,0 0,0 z M 131.10545,71.675732 c 0.15625,-2.402338 0.41505,-3.687738 0.91309,-3.9624 0.45655,-0.249625 1.52832,0.389412 3.34961,1.810912 -1.4624,0.7129 -2.88574,1.433725 -4.2627,2.151488 0,0 0,0 0,0 z m -7.99804,4.411625 c -0.0415,-1.469725 0.0989,-2.321163 0.49804,-2.581175 0.43701,-0.282588 1.36964,-0.05312 2.9004,0.646975 -1.18652,0.659787 -2.32177,1.306762 -3.39844,1.9342 0,0 0,0 0,0 z m -8.10302,4.907225 c -0.11225,-2.017213 -0.002,-3.0957 0.42236,-3.342888 0.43701,-0.252075 1.47216,0.159913 3.18359,1.13525 -0.31616,0.195925 -0.625,0.3894 -0.92529,0.576788 -0.8667,0.545037 -1.7627,1.089475 -2.68066,1.63085 0,0 0,0 0,0 z M 178.7617,58.410357 c 0.48097,-0.599975 0.87282,-0.883175 1.20363,-0.8435 0.38451,0.04575 0.82762,0.443725 1.36474,1.198725 -0.84229,-0.15015 -1.69922,-0.266725 -2.56837,-0.355225 0,0 0,0 0,0 z m -9.96947,0.159912 c 0.91675,-1.474612 1.55884,-2.1991 2.03247,-2.19665 0,0 -0.005,0 -0.005,0 0.41015,0.0025 0.91064,0.641475 1.5747,1.895138 -1.18773,0.05862 -2.39012,0.161125 -3.60228,0.301512 0,0 0,0 0,0 z m -19.02466,4.786375 c 0.63598,-1.790775 1.167,-2.745975 1.70776,-2.905275 0.46387,-0.136712 1.19262,0.3888 2.2754,1.539313 -1.33424,0.429075 -2.66236,0.886225 -3.98316,1.365962 0,0 0,0 0,0 z m 9.0564,-2.852787 c 0.52367,-1.852413 0.95336,-2.822263 1.41723,-2.899775 0.48584,-0.08175 1.2976,0.570075 2.55249,1.958012 -1.31714,0.2777 -2.64282,0.593863 -3.96972,0.941763 0,0 0,0 0,0 z m -18.98438,6.915287 c 0.1648,-1.601562 0.4248,-2.495112 0.86914,-2.70325 0.46997,-0.219112 1.38183,0.15015 2.84302,1.080938 -1.25245,0.527337 -2.49267,1.06995 -3.71216,1.622312 0,0 0,0 0,0 z"
       id="path5930"
       style="fill:#ffffff;fill-opacity:1;fill-rule:nonzero;stroke:none" />
    <path
       d="m 176.96728,60.421469 c 0,0 0.34911,0.205075 0.34911,0.205075 0.0354,-0.06038 0.0696,-0.11775 0.1025,-0.175175 1.86645,0.131225 3.67431,0.402225 5.40771,0.830688 0.0415,0.07813 0.083,0.15625 0.1245,0.234987 0,0 0.25879,-0.1355 0.25879,-0.1355 5.45654,1.433725 10.15136,4.473275 13.52295,9.7229 2.13256,3.318488 3.57178,6.798713 4.2334,10.349738 0.63965,3.436887 0.55298,6.95435 -0.33447,10.467525 -0.74219,2.93885 -1.77124,5.513311 -3.042,7.770999 -18.1079,-8.794562 -38.46435,-2.410275 -60.08423,4.370114 -11.03638,3.4607 -22.40845,7.02697 -33.92456,8.6853 -2.47924,0.21424 -4.829101,0.45411 -7.092281,0.68665 -0.56885,0.0574 -1.13037,0.11475 -1.68946,0.17151 -0.56396,0.0275 -1.13036,0.05 -1.69678,0.0659 0,0 0.005,0.10313 0.005,0.10313 -12.71485,1.2439 -23.32031,1.59668 -40.48829,-5.77515 10.64821,-2.92357 23.59254,-7.15881 36.01197,-12.118524 11.15479,-4.454349 21.896971,-9.498287 30.186771,-14.708249 10.34545,-6.501463 31.39404,-18.167725 49.86328,-20.433963 1.60035,-0.196537 3.18115,-0.32165 4.73511,-0.364987 0.006,0.01288 0.0113,0.025 0.0171,0.03788 0,0 0.0915,-0.04025 0.0915,-0.04025 1.16455,-0.0305 2.31201,-0.01525 3.44239,0.04937 0,0 0,0 0,0 z"
       id="path5932"
       style="fill:#ffffff;fill-opacity:1;fill-rule:nonzero;stroke:none" />
    <path
       d="m 138.70311,105.92623 c 0.32715,1.10839 0.9021,2.68371 1.60645,4.17724 0.42724,0.90942 1.27442,2.29675 2.07885,3.45642 -1.09862,-0.0959 -2.19482,-0.19408 -3.28246,-0.29113 -6.9983,-0.62684 -13.74269,-1.23048 -19.77295,-1.23719 -0.49317,0 -0.97901,0.001 -1.45996,0.006 6.85546,-1.72974 13.6206,-3.85131 20.26611,-5.93566 0.18799,-0.0593 0.37598,-0.11838 0.56396,-0.17639 0,0 0,0 0,0 z"
       id="path5934"
       style="fill:#ffffff;fill-opacity:1;fill-rule:nonzero;stroke:none" />
    <path
       d="m 148.00975,103.06123 c 0.36621,1.69006 0.99732,3.55653 1.80664,5.29236 0.80323,1.72119 2.43898,4.375 3.8086,6.04127 -3.27515,-0.1764 -6.56983,-0.43274 -9.83643,-0.71412 -0.87768,-1.17187 -2.0166,-2.97241 -2.51465,-4.03137 -0.69457,-1.47705 -1.25488,-3.01025 -1.55761,-4.04175 2.78809,-0.8728 5.55298,-1.7334 8.29345,-2.54639 0,0 0,0 0,0 z"
       id="path5936"
       style="fill:#ffffff;fill-opacity:1;fill-rule:nonzero;stroke:none" />
    <path
       d="m 160.18139,99.809893 c 0.28443,2.045897 1.01684,4.268187 1.88843,6.336067 1.23291,2.93273 3.15796,6.4392 4.32372,8.39293 -3.66089,0.16175 -7.44384,0.10738 -11.26709,-0.0696 -1.3501,-1.32263 -3.43017,-4.61853 -4.3396,-6.56677 -0.78978,-1.69495 -1.40258,-3.5144 -1.75171,-5.14649 3.76831,-1.10474 7.48536,-2.11486 11.14625,-2.946162 0,0 0,0 0,0 z"
       id="path5938"
       style="fill:#ffffff;fill-opacity:1;fill-rule:nonzero;stroke:none" />
    <path
       d="m 178.77635,112.90437 c -0.8496,-0.86975 -2.63427,-3.87024 -4.12597,-7.53479 -0.97656,-2.39929 -1.79688,-5.06164 -2.09961,-7.576287 8.38135,-0.723275 16.38795,0.134275 23.90503,3.732297 -4.15405,6.13648 -10.36011,9.57703 -17.67945,11.37878 0,0 0,0 0,0 z"
       id="path5940"
       style="fill:#ffffff;fill-opacity:1;fill-rule:nonzero;stroke:none" />
    <path
       d="m 171.48265,97.892781 c 0.31495,2.626339 1.16455,5.394899 2.17652,7.879639 1.30493,3.20374 2.92725,5.9668 4.04053,7.38342 -3.22022,0.71289 -6.64551,1.1267 -10.1941,1.32752 -0.92407,-1.53748 -3.08227,-5.50049 -4.44946,-8.75123 -0.85205,-2.02331 -1.56494,-4.19006 -1.82617,-6.155387 3.47168,-0.756237 6.8921,-1.342775 10.25268,-1.683962 0,0 0,0 0,0 z"
       id="path5942"
       style="fill:#ffffff;fill-opacity:1;fill-rule:nonzero;stroke:none" />
    <path
       d="m 152.1162,90.519119 c 1.57227,8.915412 -7.26075,17.855221 -7.03369,26.201791 2.56592,0.13855 4.53126,-1.69495 5.15869,-1.80604 -0.42968,0.0763 -0.8728,2.25159 -1.11938,4.70399 1.9165,-0.20509 4.0564,-2.42799 4.52758,-2.51038 0.15015,1.41174 -0.51513,3.52661 -0.35278,4.1571 15.40527,-7.20704 22.90161,-23.815312 22.5232,-29.164423 0,0 -23.70362,-1.582038 -23.70362,-1.582038 0,0 0,0 0,0 z"
       id="path5944"
       style="fill:#ffffff;fill-opacity:1;fill-rule:evenodd;stroke:none" />
    <path
       d="m 160.67089,115.35188 c -2.63672,-0.52795 -5.19287,-1.44409 -7.44141,-2.83141 -1.86768,-1.15358 -3.52539,-2.63306 -4.84009,-4.48975 0.37964,-0.87891 0.7837,-1.76575 1.18775,-2.65443 3.28858,-7.219847 5.05371,-11.505733 2.02636,-18.848258 0.49073,5.199587 -0.2417,10.397949 -3.97095,17.963858 -1.8811,4.12965 -3.73169,8.19337 -3.62182,12.26137 0,0 0.0269,0.98143 0.0269,0.98143 1.5747,0.0842 2.85643,0.0385 4.3457,-0.63171 -0.21607,1.23169 -0.33203,2.47681 -0.45654,3.72131 1.49657,-0.23558 2.33153,-0.56823 4.49462,-1.54541 -0.20996,1.30066 -0.16846,2.21193 0.16114,3.50099 6.71875,-3.14331 12.1167,-7.33826 16.66015,-13.21961 5.41017,-7.00805 8.12011,-13.076179 7.20947,-21.634528 -1.46606,6.882325 -2.81127,13.020028 -8.90137,20.330198 -1.91528,2.47864 -4.20898,4.91761 -6.87988,7.09595 0,0 0,0 0,0 z"
       id="path5946"
       style="fill:#231f20;fill-opacity:1;fill-rule:nonzero;stroke:none" />
    <path
       d="m 147.68016,109.74824 c 1.33668,1.67542 2.93702,3.04139 4.70582,4.1333 2.03735,1.25794 4.2981,2.15333 6.6394,2.74109 0,0 -4.47021,2.81739 -4.47021,2.81739 0,0 0.0366,-3.58765 0.0366,-3.58765 0,0 -4.198,2.18384 -4.198,2.18384 0,0 -0.33447,-4.17969 -0.33447,-4.17969 0,0 -3.87818,1.7212 -3.87818,1.7212 0,0 1.49902,-5.82948 1.49902,-5.82948 0,0 0,0 0,0 z"
       id="path5948"
       style="fill:#ffffff;fill-opacity:1;fill-rule:nonzero;stroke:none" />
    <path
       d="m 98.156239,98.330406 c 0.23315,9.049064 -9.82666,16.582024 -10.83863,24.869374 2.51588,0.51698 4.73267,-1.00464 5.36744,-1.02111 -0.43457,0.01 -1.19507,2.09716 -1.80299,4.48609 1.92505,0.08 4.37134,-1.80115 4.84987,-1.81275 -0.061,1.41967 -1.03273,3.41186 -0.9668,4.06006 16.304921,-4.84375 26.179201,-20.1593 26.599121,-25.50538 0,0 -23.208011,-5.076284 -23.208011,-5.076284 0,0 0,0 0,0 z"
       id="path5950"
       style="fill:#ffffff;fill-opacity:1;fill-rule:evenodd;stroke:none" />
    <path
       d="m 102.93651,124.15621 c -2.53052,-0.91248 -4.921871,-2.19788 -6.940921,-3.90382 -1.67603,-1.41723 -3.0957,-3.12682 -4.12109,-5.15686 0.50659,-0.81359 1.03638,-1.62902 1.5686,-2.44872 4.32008,-6.65284 6.702891,-10.62989 4.79736,-18.339841 -0.28686,5.214837 -1.781,10.246571 -6.59057,17.177111 -2.4707,3.80494 -4.90356,7.54945 -5.39795,11.58875 0,0 -0.11838,0.97534 -0.11838,0.97534 1.54419,0.31616 2.8186,0.46142 4.38964,0.0189 -0.39429,1.18775 -0.69457,2.3999 -1.00219,3.61329 1.51612,-0.0125 2.39014,-0.21729 4.67285,-0.86122 -0.39795,1.25305 -0.49195,2.16248 -0.35888,3.48328 7.113031,-2.1112 13.071281,-5.4602 18.435061,-10.60485 6.3916,-6.12794 9.96947,-11.72669 10.33691,-20.325939 -2.46826,6.589979 -4.70947,12.459729 -11.81641,18.786629 -2.26074,2.16796 -4.89014,4.2395 -7.854,5.99792 0,0 0,0 0,0 z"
       id="path5952"
       style="fill:#231f20;fill-opacity:1;fill-rule:nonzero;stroke:none" />
    <path
       d="m 90.918689,116.68978 c 1.073,1.85485 2.45361,3.4436 4.04175,4.78576 1.82861,1.54542 3.93066,2.76612 6.159661,3.69445 0,0 -4.837641,2.1222 -4.837641,2.1222 0,0 0.56763,-3.54248 0.56763,-3.54248 0,0 -4.4751,1.53808 -4.4751,1.53808 0,0 0.28809,-4.18212 0.28809,-4.18212 0,0 -4.09058,1.12671 -4.09058,1.12671 0,0 2.34619,-5.5426 2.34619,-5.5426 0,0 0,0 0,0 z"
       id="path5954"
       style="fill:#ffffff;fill-opacity:1;fill-rule:nonzero;stroke:none" />
    <path
       d="m 234.07909,103.25959 c -0.45899,-0.0769 -0.92285,-0.15807 -1.38916,-0.24475 0,0 0,0 0,0"
       id="path5956"
       style="fill:#231f20;fill-opacity:1;fill-rule:nonzero;stroke:none" />
    <path
       d="m 251.66454,105.01924 c -0.0281,-10e-4 -0.0561,-0.004 -0.0806,-0.006"
       id="path5958"
       style="fill:#231f20;fill-opacity:1;fill-rule:nonzero;stroke:none" />
    <path
       d="m 147.05273,68.659994 c -1.71875,0.422363 -2.90772,1.64245 -2.66847,2.764275 0.24903,1.154788 1.91895,1.781013 3.71704,1.392825 0.77515,-0.166012 1.44898,-0.493775 1.94703,-0.905762 -0.0489,0.01337 -0.0965,0.02262 -0.14649,0.03363 -1.79931,0.388175 -3.46679,-0.238038 -3.71581,-1.392213 -0.1416,-0.657962 0.20751,-1.347662 0.8667,-1.8927 0,0 0,0 0,0 z m -33.64503,20.85815 c -2.13745,0.86975 -3.42529,2.698363 -2.86865,4.072263 0.55909,1.371462 2.75756,1.782225 4.89746,0.911262 0.45654,-0.18555 0.8728,-0.413825 1.24268,-0.672612 -1.95069,0.59265 -3.82935,0.1416 -4.33838,-1.11145 -0.43946,-1.079713 0.26367,-2.4408 1.62475,-3.3966 -0.18676,0.05675 -0.37108,0.122125 -0.55786,0.197137 0,0 0,0 0,0 z m 14.67041,-0.729375 c -2.57323,0.843513 -4.23096,2.873538 -3.69385,4.5282 0.53834,1.658325 3.08473,2.327275 5.66895,1.48865 0.67872,-0.219725 1.29394,-0.52185 1.82373,-0.879512 -0.008,0.0025 -0.0146,0.0063 -0.0233,0.0075 -2.58424,0.839225 -5.13184,0.170287 -5.67018,-1.489263 -0.3955,-1.224362 0.40773,-2.652587 1.89454,-3.6554 0,0 0,0 0,0 z m -2.89672,-9.204712 c -2.26685,1.4972 -3.3313,3.90565 -2.37183,5.360725 0.96192,1.455075 3.59619,1.4209 5.86182,-0.07625 0.002,-0.0025 0.007,-0.005 0.01,-0.0062 -1.72363,0.550537 -3.35694,0.290525 -4.06983,-0.788575 -0.95947,-1.45385 0.10013,-3.8562 2.36084,-5.354613 -0.59814,0.19165 -1.20605,0.48035 -1.79076,0.865475 0,0 0,0 0,0 z m 12.70996,-3.637075 c -2.26807,1.4978 -3.33252,3.905637 -2.37184,5.361325 0.95948,1.455075 3.59375,1.4209 5.86183,-0.0775 0.002,-0.0012 0.005,-0.0038 0.009,-0.005 -1.72241,0.55115 -3.35693,0.290525 -4.07104,-0.789175 -0.95947,-1.453863 0.10138,-3.856213 2.36084,-5.354013 -0.5957,0.191038 -1.20484,0.479125 -1.78833,0.864875 0,0 0,0 0,0 z m 4.07104,10.771475 c -2.54639,0.944225 -4.13086,3.0481 -3.52539,4.683237 0.60546,1.635125 3.17871,2.199088 5.72754,1.254875 0.56152,-0.210562 1.0791,-0.474237 1.53565,-0.779412 -2.45973,0.811762 -4.87794,0.230712 -5.46143,-1.34705 -0.47241,-1.274413 0.3833,-2.831425 1.9873,-3.903813 -0.0879,0.02925 -0.17578,0.05925 -0.26367,0.09213 0,0 0,0 0,0 z m 8.50343,-10.933838 c -1.97877,0.599375 -3.33009,1.958013 -3.18361,3.378913 0.18067,1.734012 2.53174,2.919312 5.23438,2.639162 1.25976,-0.130625 2.37793,-0.556037 3.1958,-1.1499 -0.43822,0.131225 -0.90576,0.22705 -1.39526,0.277088 -2.70264,0.280762 -5.05249,-0.904538 -5.23315,-2.638538 -0.0964,-0.927125 0.44434,-1.8274 1.38184,-2.506725 0,0 0,0 0,0 z m 8.74755,-8.768912 c -1.97754,0.599975 -3.3313,1.958 -3.18359,3.3789 0.17822,1.734625 2.53174,2.920537 5.23437,2.639775 1.25854,-0.130613 2.37793,-0.55725 3.1958,-1.150513 -0.43945,0.13245 -0.90576,0.22705 -1.39526,0.278313 -2.70386,0.280162 -5.05494,-0.904538 -5.23437,-2.63915 -0.0964,-0.926513 0.44555,-1.8274 1.38305,-2.507325 0,0 0,0 0,0 z m 6.34277,8.341675 c -2.08007,0.66955 -3.50586,2.077637 -3.43871,3.635862 0.0891,2.08435 2.81127,3.670038 6.05956,3.530888 1.61255,-0.06837 3.05909,-0.549938 4.09546,-1.2732 -0.70068,0.225225 -1.47705,0.366825 -2.29492,0.401 -3.24708,0.139775 -5.96924,-1.445925 -6.05958,-3.531488 -0.044,-1.0492 0.58594,-2.029425 1.63819,-2.763062 0,0 0,0 0,0 z m 7.92359,-11.14685 c -2.26196,0.747675 -3.78663,2.33215 -3.61329,3.985587 0.21851,2.073975 3.03101,3.4906 6.26588,3.151863 1.42577,-0.149538 2.7002,-0.61585 3.66211,-1.2677 -0.57861,0.190425 -1.20361,0.325925 -1.86158,0.396112 -3.23365,0.338138 -6.04858,-1.077262 -6.26587,-3.152462 -0.12213,-1.159675 0.59326,-2.286375 1.81275,-3.1134 0,0 0,0 0,0 z M 67.613029,104.11287 c -1.8396,0.51209 -3.10303,1.78222 -2.92359,3.05664 0.20752,1.45568 2.22656,2.38221 4.49464,2.06116 1.04003,-0.1471 1.95556,-0.53161 2.6245,-1.0437 -0.26367,0.0733 -0.53955,0.13061 -0.82275,0.17151 -2.2705,0.32165 -4.28833,-0.60486 -4.49463,-2.06055 -0.11231,-0.7898 0.33203,-1.57715 1.12183,-2.18506 0,0 0,0 0,0 z m 11.84692,-2.81555 c -1.54907,0.34729 -2.64649,1.38306 -2.5,2.42065 0.16113,1.12427 1.71631,1.839 3.46924,1.59057 0.89111,-0.12633 1.66626,-0.47912 2.18994,-0.94481 -0.12695,0.0286 -0.25757,0.0544 -0.3894,0.072 -1.75172,0.24903 -3.30933,-0.4663 -3.46803,-1.58935 -0.0781,-0.55054 0.19531,-1.10107 0.69825,-1.54907 0,0 0,0 0,0 z m 9.15405,-3.377689 c -2.3877,0.96985 -3.82446,3.010859 -3.20312,4.544079 0.62377,1.53015 3.07738,1.98791 5.46508,1.01622 0.46998,-0.19104 0.90333,-0.42357 1.2915,-0.68542 -2.21923,0.71472 -4.37621,0.21912 -4.95605,-1.203 -0.49926,-1.22985 0.32715,-2.788092 1.90918,-3.856817 -0.16968,0.05438 -0.33813,0.115375 -0.50659,0.184938 0,0 0,0 0,0 z"
       id="path5960"
       style="fill:#231f20;fill-opacity:1;fill-rule:evenodd;stroke:none" />
    <path
       d="m 213.29784,95.074169 c 0.0538,1.682137 0.18555,3.248299 0.4187,4.421387 0.26978,1.362314 0.75806,2.311414 1.5271,2.597054 0,0 0.48829,0.0654 0.48829,0.0654 0.65674,-0.0489 1.45507,-0.55482 2.32421,-1.40199 0.70801,-0.6903 1.51611,-1.622314 2.36329,-2.716064 0.68847,0.285037 1.38184,0.570687 2.07641,0.855712 -0.40161,1.441052 -0.70801,2.774052 -0.84595,3.815922 -0.18066,1.3678 -0.0489,2.42615 0.52979,2.9602 0,0 0.43335,0.25453 0.43335,0.25453 0.76294,0.23437 1.97021,-0.14344 3.42162,-0.96559 1.20607,-0.68481 2.69777,-1.70592 4.29322,-2.93029 0.21362,0.083 0.42602,0.1654 0.63843,0.24842 -0.24415,1.01806 -0.41626,1.93847 -0.48585,2.6831 -0.10737,1.1499 0.0549,2.03918 0.58107,2.52625 0,0 0.43456,0.25328 0.43456,0.25328 0.69581,0.21485 1.73829,-0.0708 2.98706,-0.73058 0.95825,-0.50843 2.1167,-1.25123 3.37036,-2.15577 0.44434,0.16175 0.88868,0.31983 1.33302,0.47547 -0.42603,1.47095 -0.76417,2.86193 -0.93994,3.98803 -0.23683,1.53809 -0.13429,2.73133 0.48095,3.30018 0,0 0.43457,0.25451 0.43457,0.25451 0.83984,0.25879 2.27295,-0.26001 3.99658,-1.3092 1.35254,-0.8197 2.97852,-1.98304 4.67651,-3.3374 -0.3308,1.91223 -0.57739,3.80554 -0.65062,5.3125 -0.0927,1.93604 0.16723,3.4082 0.97167,3.91968 0,0 0.47241,0.16723 0.47241,0.16723 0.93628,0.11663 2.48413,-0.79162 4.27124,-2.33276 1.38673,-1.19629 3.01025,-2.80335 4.6399,-4.59656 0.38818,0.0817 0.77514,0.16296 1.156,0.23865 1.90918,0.38025 3.67431,0.55969 5.29541,0.56274 4.05762,0.008 7.25098,-1.07239 9.57398,-2.82043 0,0 -10e-4,0.004 -10e-4,0.004 2.36573,-1.78101 3.81837,-4.24316 4.35792,-6.95191 0.15868,-0.79468 0.23926,-1.604 0.2417,-2.423702 0.005,-2.251587 -0.71778,-4.411011 -1.93115,-6.348261 -1.54542,-2.462775 -3.88917,-4.5807 -6.53077,-6.077275 -2.64648,-1.499638 -5.6189,-2.388313 -8.41308,-2.394413 -1.85059,-0.0037 -3.62183,0.375975 -5.18067,1.2146 -0.40038,-0.169062 -0.76416,-0.317387 -1.17187,-0.485837 -6.46485,-2.655638 -22.8003,-9.365238 -25.36133,-17.038575 -1.4856,-6.740725 -5.55176,-11.411738 -10.73487,-13.831788 -3.35449,-1.56555 -7.1704,-2.180175 -11.04736,-1.796875 -3.85742,0.382688 -7.78077,1.752925 -11.36719,4.157713 -7.0581,4.733887 -12.82714,13.479012 -14.23218,26.586312 0,0 -0.12572,1.168213 -0.12572,1.168213 0,0 1.17065,0.097 1.17065,0.097 6.14257,0.509037 17.18261,5.128175 29.86939,10.438237 0.0635,0.0275 0.12695,0.0525 0.19042,0.07937 0,0 0,0 0,0 z"
       id="path5962"
       style="fill:#231f20;fill-opacity:1;fill-rule:nonzero;stroke:none" />
    <path
       d="m 184.60399,82.409382 c 1.521,-11.72425 6.75415,-19.549563 13.10059,-23.80615 3.26416,-2.188113 6.81885,-3.433838 10.30884,-3.778688 3.47046,-0.343625 6.87622,0.202025 9.85717,1.593625 4.58619,2.1405 8.1836,6.303713 9.48731,12.333375 0,0 0.0293,0.119625 0.0293,0.119625 2.86865,8.68775 19.92798,15.694588 26.67724,18.467413 0.77638,0.317375 1.43311,0.588375 1.67481,0.691525 0,0 0.5542,0.236812 0.5542,0.236812 0,0 0.50537,-0.317375 0.50537,-0.317375 1.30127,-0.814212 2.84423,-1.1792 4.47753,-1.174925 2.3877,0.005 4.96339,0.78735 7.29004,2.105713 2.33155,1.320187 4.38721,3.165887 5.72023,5.296012 0.99852,1.590574 1.59178,3.334962 1.58691,5.120237 0,0.675662 -0.0659,1.339729 -0.19531,1.983039 -0.43214,2.17224 -1.59424,4.14429 -3.49122,5.57006 0,0 -0.002,0.005 -0.002,0.005 -1.9397,1.45874 -4.66308,2.36145 -8.18237,2.35413 -1.48316,-0.002 -3.10181,-0.1654 -4.85718,-0.51575 -0.66651,-0.13367 -1.3379,-0.27527 -2.01172,-0.42542 0,0 -0.28199,-0.24475 -0.28199,-0.24475 -0.0439,0.0506 -0.0866,0.10013 -0.13061,0.15015 -13.54248,-3.07922 -29.08203,-9.583134 -42.72461,-15.292358 -12.12035,-5.071413 -22.75634,-9.520875 -29.39209,-10.471188 0,0 0,0 0,0 z"
       id="path5964"
       style="fill:#ffffff;fill-opacity:1;fill-rule:nonzero;stroke:none" />
    <path
       d="m 227.81933,101.04402 c -1.07666,0.7837 -2.07275,1.44165 -2.9187,1.92017 -0.43824,0.25024 -0.80445,0.44678 -1.07544,0.57983 0.033,-0.13976 0.0684,-0.31676 0.0952,-0.52734 0.11713,-0.88745 0.37354,-2.01844 0.708,-3.252562 1.05958,0.429072 2.12403,0.855712 3.19093,1.279902 0,0 0,0 0,0 z"
       id="path5966"
       style="fill:#ffffff;fill-opacity:1;fill-rule:nonzero;stroke:none" />
    <path
       d="m 235.21923,103.89253 c -0.66895,0.44495 -1.2793,0.81544 -1.8103,1.0962 -0.26001,0.13794 -0.48218,0.25208 -0.66529,0.34179 0.007,-0.0445 0.0159,-0.0953 0.0195,-0.15014 0.0537,-0.56764 0.18188,-1.27625 0.36376,-2.07337 0.69825,0.2649 1.39405,0.52796 2.09229,0.78552 0,0 0,0 0,0 z"
       id="path5968"
       style="fill:#ffffff;fill-opacity:1;fill-rule:nonzero;stroke:none" />
    <path
       d="m 254.95555,110.10957 c -1.2622,1.33972 -2.48778,2.5293 -3.55712,3.45155 -0.85694,0.73852 -1.55029,1.29089 -1.99708,1.57592 0.0146,-0.32532 0.039,-0.84167 0.0684,-1.48316 0.0684,-1.35436 0.28809,-3.07067 0.58594,-4.83154 1.65283,0.46875 3.28857,0.90088 4.8999,1.28723 0,0 0,0 0,0 z"
       id="path5970"
       style="fill:#ffffff;fill-opacity:1;fill-rule:nonzero;stroke:none" />
    <path
       d="m 245.21434,107.36116 c -1.18164,0.89843 -2.29004,1.66748 -3.24462,2.24671 -0.68604,0.41626 -1.24024,0.73059 -1.61377,0.91004 0.0415,-0.20937 0.0989,-0.49378 0.1538,-0.84534 0.15382,-0.98329 0.45655,-2.23389 0.84473,-3.58704 1.29395,0.44006 2.58057,0.86791 3.85986,1.27563 0,0 0,0 0,0 z"
       id="path5972"
       style="fill:#ffffff;fill-opacity:1;fill-rule:nonzero;stroke:none" />
    <path
       d="m 218.20873,97.125568 c -0.6543,0.819088 -1.25121,1.499625 -1.75659,1.9928 -0.1648,0.158688 -0.30884,0.29785 -0.43212,0.409538 -0.005,-0.127563 -0.0195,-0.28625 -0.0561,-0.473025 -0.15625,-0.7849 -0.26122,-1.828613 -0.3247,-3.001088 0.84961,0.355825 1.70776,0.714713 2.56958,1.071775 0,0 0,0 0,0 z"
       id="path5974"
       style="fill:#ffffff;fill-opacity:1;fill-rule:nonzero;stroke:none" />
    <path
       d="m 272.55077,97.887893 c -0.55664,-1.299437 -2.80762,-6.015624 -5.30884,-7.498774 -2.63305,-1.558837 -5.47851,0.46325 -0.11225,3.330688 0,0 2.6355,1.408075 2.6355,1.408075 0,0 2.78564,2.760011 2.78564,2.760011 0,0 0,0 0,0 z"
       id="path5976"
       style="fill:#231f20;fill-opacity:1;fill-rule:evenodd;stroke:none" />
    <path
       d="m 212.56054,56.520094 c -2.1814,0.950325 -4.11134,2.536625 -5.48096,4.689338 -3.65845,5.751337 -1.95069,13.4259 3.80127,17.08435 2.87598,1.829837 6.23292,2.316287 9.32617,1.6278 2.83081,-0.629875 5.43946,-2.242425 7.26562,-4.710688 0,0 -10.87157,-16.168212 -10.87157,-16.168212 0,0 -1.21094,2.130125 -1.21094,2.130125 0,0 -2.82959,-4.652713 -2.82959,-4.652713 0,0 0,0 0,0 z"
       id="path5978"
       style="fill:#231f20;fill-opacity:1;fill-rule:nonzero;stroke:none" />
    <path
       d="m 224.91649,73.829669 c -1.38916,2.0404 -3.46312,3.368525 -5.72021,3.87085 -2.34864,0.521238 -4.89258,0.151975 -7.07275,-1.233525 -4.36035,-2.77405 -5.65674,-8.593137 -2.8833,-12.954712 1.06567,-1.674188 2.57812,-2.8955 4.28466,-3.609 0,0 1.84083,3.028562 1.84083,3.028562 0,0 1.01806,-1.792 1.01806,-1.792 0,0 8.53271,12.689825 8.53271,12.689825 0,0 0,0 0,0 z"
       id="path5980"
       style="fill:#f47216;fill-opacity:1;fill-rule:nonzero;stroke:none" />
    <path
       d="m 213.25634,59.461994 c -1.77246,0.756838 -3.33985,2.033075 -4.44825,3.775025 -2.9248,4.598388 -1.56005,10.736688 3.03955,13.660888 4.45435,2.83325 10.35035,1.64185 13.37403,-2.6123 0,0 -8.83789,-13.145763 -8.83789,-13.145763 0,0 -1.01806,1.792 -1.01806,1.792 0,0 -2.10938,-3.46985 -2.10938,-3.46985 0,0 0,0 0,0 z"
       id="path5982"
       style="fill:#ffffff;fill-opacity:1;fill-rule:evenodd;stroke:none" />
    <path
       d="m 220.19482,69.978957 c 0.46875,-0.736688 0.81298,-1.514275 1.06201,-2.283325 0,0 -3.14209,-4.672238 -3.14209,-4.672238 -1.24146,0.75805 -2.57569,1.8689 -3.53882,3.38135 -2.25953,3.553463 -1.68702,7.987663 -1.29273,8.2373 0.39308,0.250863 4.65333,-1.110225 6.91163,-4.663087 0,0 0,0 0,0 z"
       id="path5984"
       style="fill:#231f20;fill-opacity:1;fill-rule:evenodd;stroke:none" />
    <path
       d="m 220.68798,67.539994 c -0.58838,0.195313 -1.11816,0.585325 -1.47461,1.14685 -0.82275,1.29395 -0.43945,3.02185 0.85693,3.845825 1.18164,0.75135 2.72339,0.495613 3.61084,-0.540775 0,0 -2.99316,-4.4519 -2.99316,-4.4519 0,0 0,0 0,0 z"
       id="path5986"
       style="fill:#ffffff;fill-opacity:1;fill-rule:evenodd;stroke:none" />
    <path
       d="m 208.78734,89.013994 c -1.69555,-2.011112 -3.39965,-4.034425 -5.177,-5.876462 -3.50952,-3.637088 -6.59667,-5.841675 -9.27856,-6.873788 -2.54883,-0.980825 -4.76196,-0.934437 -6.64918,-0.0635 -1.85302,0.855713 -3.33251,2.492075 -4.46288,4.718638 -1.58935,3.132325 -2.49512,7.484125 -2.77833,12.453 -0.0805,1.389162 -0.0623,2.713011 0.0451,3.976436 0.58837,6.906122 3.87695,11.740722 8.96117,14.959712 3.02979,1.91956 6.69434,3.24585 10.79346,4.08753 4.85108,-7.1344 9.62524,-14.88037 11.88965,-23.480228 -1.28173,-1.437375 -2.44628,-2.837525 -3.34351,-3.901363 z"
       id="path5988"
       style="fill:#231f20;fill-opacity:1;fill-rule:nonzero;stroke:none" />
    <path
       d="m 207.29687,90.486157 c -1.68702,-1.9818 -3.38623,-3.976438 -5.12452,-5.75805 -3.29711,-3.380125 -6.13647,-5.405888 -8.54613,-6.323238 -1.94337,-0.73975 -3.57423,-0.7306 -4.91455,-0.118375 -1.3733,0.627438 -2.50978,1.901238 -3.41432,3.663325 -1.4563,2.840575 -2.2937,6.884163 -2.56347,11.555788 -0.0733,1.2915 -0.0586,2.507324 0.039,3.650511 0.52734,6.109622 3.45702,10.381472 7.98827,13.218392 3.03955,1.9049 6.81153,3.18176 11.07423,3.95325 3.91357,-5.83253 7.62329,-12.07398 9.85351,-18.853766 -1.48194,-1.572875 -2.93335,-3.27515 -4.39209,-4.9878 z"
       id="path5990"
       style="fill:#ffffff;fill-opacity:1;fill-rule:nonzero;stroke:none" />
  </g>
</svg>
