<?xml version="1.0" encoding="UTF-8" standalone="no"?>
<!-- Created with Inkscape (http://www.inkscape.org/) -->

<svg
   xmlns:dc="http://purl.org/dc/elements/1.1/"
   xmlns:cc="http://creativecommons.org/ns#"
   xmlns:rdf="http://www.w3.org/1999/02/22-rdf-syntax-ns#"
   xmlns:svg="http://www.w3.org/2000/svg"
   xmlns="http://www.w3.org/2000/svg"
   version="1.1"
   width="744.09448"
   height="1052.3622"
   id="svg5422">
  <defs
     id="defs5424" />
  <metadata
     id="metadata5427">
    <rdf:RDF>
      <cc:Work
         rdf:about="">
        <dc:format>image/svg+xml</dc:format>
        <dc:type
           rdf:resource="http://purl.org/dc/dcmitype/StillImage" />
        <dc:title></dc:title>
      </cc:Work>
    </rdf:RDF>
  </metadata>
  <g
     id="layer1">
    <path
       d="m 96.160423,105.20187 c -8.34534,-2.31201 -30.46142,-10.914299 -33.12987,-22.973629 -0.0214,-0.0976 -0.0622,-0.2417 -0.0915,-0.33813 -0.0671,-0.21485 -1.59058,-5.34547 2.45361,-11.80787 4.83582,-7.73071 18.0896,-18.09082 53.767697,-23.54492 0.0403,-0.006 0.0842,-0.0134 0.12325,-0.022 0.22949,-0.0427 23.08715,-4.16504 36.57959,7.20094 6.86157,5.78002 10.25268,14.78515 10.07751,26.76147 -0.004,0.105 -0.53711,14.22119 -12.43775,22.886959 -12.07275,8.79273 -31.36596,9.4104 -57.342527,1.83715 0,0 0,0 0,0 z M 117.99513,39.403531 c -31.041857,4.75708 -50.869747,13.89526 -58.930657,27.16675 -2.9425,4.84619 -3.66821,9.3042 -3.66821,12.52198 0,2.83325 0.55665,4.68627 0.66345,5.01831 4.45435,18.547359 36.74744,27.663569 38.12806,28.044419 28.262327,8.24098 49.702747,7.22779 63.676137,-3.0249 14.76136,-10.828859 15.2887,-27.806399 15.30396,-28.522949 0.20874,-14.29077 -4.05701,-25.19775 -12.677,-32.44385 -16.01746,-13.46191 -41.0553,-9.02953 -42.49574,-8.75976 0,0 0,0 0,0 z"
       id="path3506"
       style="fill:#231f20;fill-opacity:1;fill-rule:nonzero;stroke:none" />
    <path
       d="m 66.721953,76.186981 c 0,0 6.31652,-16.84449 25.26672,-18.42407 0,0 -20.00244,8.94897 -17.37061,18.42407 0,0 -7.89611,0 -7.89611,0 0,0 0,0 0,0 z"
       id="path3508"
       style="fill:#231f20;fill-opacity:1;fill-rule:nonzero;stroke:none" />
  </g>
</svg>
