<?xml version="1.0" encoding="UTF-8" standalone="no"?>
<!-- Created with Inkscape (http://www.inkscape.org/) -->

<svg
   xmlns:dc="http://purl.org/dc/elements/1.1/"
   xmlns:cc="http://creativecommons.org/ns#"
   xmlns:rdf="http://www.w3.org/1999/02/22-rdf-syntax-ns#"
   xmlns:svg="http://www.w3.org/2000/svg"
   xmlns="http://www.w3.org/2000/svg"
   xmlns:sodipodi="http://sodipodi.sourceforge.net/DTD/sodipodi-0.dtd"
   xmlns:inkscape="http://www.inkscape.org/namespaces/inkscape"
   version="1.1"
   width="117.77892"
   height="79.167725"
   id="svg5422"
   inkscape:version="0.48.1 r9760"
   sodipodi:docname="egg.svg">
  <style
     type="text/css"
     id="style7903">     
   .border { fill: green }
   .skin { fill: yellow }
  </style>
  <sodipodi:namedview
     pagecolor="#ffffff"
     bordercolor="#666666"
     borderopacity="1"
     objecttolerance="10"
     gridtolerance="10"
     guidetolerance="10"
     inkscape:pageopacity="0"
     inkscape:pageshadow="2"
     inkscape:window-width="989"
     inkscape:window-height="715"
     id="namedview8"
     showgrid="false"
     fit-margin-top="0"
     fit-margin-left="0"
     fit-margin-right="0"
     fit-margin-bottom="0"
     inkscape:zoom="2.6080727"
     inkscape:cx="68.467792"
     inkscape:cy="39.583863"
     inkscape:window-x="222"
     inkscape:window-y="14"
     inkscape:window-maximized="0"
     inkscape:current-layer="svg5422" />
  <defs
     id="defs5424" />
  <metadata
     id="metadata5427">
    <rdf:RDF>
      <cc:Work
         rdf:about="">
        <dc:format>image/svg+xml</dc:format>
        <dc:type
           rdf:resource="http://purl.org/dc/dcmitype/StillImage" />
        <dc:title />
      </cc:Work>
    </rdf:RDF>
  </metadata>
  <g
     id="egg">
    <path
       style="fill-opacity:1;fill-rule:nonzero;stroke:none"
       d="m 71.447487,4.03865 c -21.413,2.307058 -44.739683,6.527903 -61.03125,21.5 -7.776275,7.707623 -9.046803,21.936305 0.4375,28.90625 15.598751,14.25212 37.50105,18.51219 57.8125,20.71875 16.63954,1.20329 35.813083,-5.00258 42.343753,-21.59375 7.77208,-17.550064 -0.67066,-42.432337 -20.625003,-47.25 -6.02804,-1.904076 -12.55423,-2.448182 -18.9375,-2.28125 z"
       id="path2987"
       inkscape:connector-curvature="0" class="skin"/>
    <path
       d="M 40.76416,66.70927 C 32.41882,64.39726 10.30274,55.794971 7.63429,43.735641 c -0.0214,-0.0976 -0.0622,-0.2417 -0.0915,-0.33813 -0.0671,-0.21485 -1.59058,-5.34547 2.45361,-11.80787 4.83582,-7.73071 18.0896,-18.09082 53.767697,-23.54492 0.0403,-0.006 0.0842,-0.0134 0.12325,-0.022 0.22949,-0.0427 23.08715,-4.16504 36.579593,7.20094 6.86157,5.78002 10.25268,14.78515 10.07751,26.76147 -0.004,0.105 -0.53711,14.22119 -12.437753,22.886959 -12.07275,8.79273 -31.36596,9.4104 -57.342527,1.83715 0,0 0,0 0,0 z M 62.598867,0.910931 C 31.55701,5.668011 11.72912,14.806191 3.66821,28.077681 0.72571,32.923871 0,37.381881 0,40.599661 c 0,2.83325 0.55665,4.68627 0.66345,5.01831 4.45435,18.547359 36.74744,27.663569 38.12806,28.044419 28.262327,8.24098 49.702747,7.22779 63.67614,-3.0249 14.76136,-10.828859 15.2887,-27.806399 15.30396,-28.522949 0.20874,-14.29077 -4.05701,-25.19775 -12.677,-32.44385 -16.017463,-13.46191 -41.055303,-9.02953 -42.495743,-8.75976 0,0 0,0 0,0 z"
       id="path3506"
       style="fill-opacity:1;fill-rule:nonzero;stroke:none"
       inkscape:connector-curvature="0" class="border"/>
    <path
       d="m 11.32569,37.694381 c 0,0 6.31652,-16.84449 25.26672,-18.42407 0,0 -20.00244,8.94897 -17.37061,18.42407 0,0 -7.89611,0 -7.89611,0 0,0 0,0 0,0 z"
       id="path3508"
       style="fill-opacity:1;fill-rule:nonzero;stroke:none"
       inkscape:connector-curvature="0" class="border"/>
  </g>
</svg>
