<?xml version="1.0" encoding="UTF-8" standalone="no"?>
<!-- Created with Inkscape (http://www.inkscape.org/) -->

<svg
   xmlns:dc="http://purl.org/dc/elements/1.1/"
   xmlns:cc="http://creativecommons.org/ns#"
   xmlns:rdf="http://www.w3.org/1999/02/22-rdf-syntax-ns#"
   xmlns:svg="http://www.w3.org/2000/svg"
   xmlns="http://www.w3.org/2000/svg"
   xmlns:sodipodi="http://sodipodi.sourceforge.net/DTD/sodipodi-0.dtd"
   xmlns:inkscape="http://www.inkscape.org/namespaces/inkscape"
   onload="step()"
   width="300"
   height="160"
   id="svg3854"
   version="1.1"
   inkscape:version="0.48.1 r9760"
   sodipodi:docname="open.svg">
  <style
     type="text/css"
     id="style7903">     
   .border { fill: green }
   .skin { fill: yellow }
  </style>
  <script
     type="text/ecmascript"
     id="script4">
   var angle = 0;
   function step() {
     face = document.getElementById(&quot;face&quot;);
     face.setAttribute(&quot;transform&quot;, &quot;rotate(&quot; + angle + &quot;, 270, 120)&quot;);
     angle += 5;
     setTimeout(step, 40)
   }
</script>
  <defs
     id="defs3856" />
  <sodipodi:namedview
     id="base"
     pagecolor="#ffffff"
     bordercolor="#666666"
     borderopacity="1.0"
     inkscape:pageopacity="0.0"
     inkscape:pageshadow="2"
     inkscape:zoom="1.18"
     inkscape:cx="234.84357"
     inkscape:cy="60.382826"
     inkscape:document-units="px"
     inkscape:current-layer="layer1"
     showgrid="false"
     inkscape:window-width="831"
     inkscape:window-height="638"
     inkscape:window-x="136"
     inkscape:window-y="33"
     inkscape:window-maximized="0"
     fit-margin-top="0"
     fit-margin-left="0"
     fit-margin-right="13.8"
     fit-margin-bottom="0" />
  <metadata
     id="metadata3859">
    <rdf:RDF>
      <cc:Work
         rdf:about="">
        <dc:format>image/svg+xml</dc:format>
        <dc:type
           rdf:resource="http://purl.org/dc/dcmitype/StillImage" />
        <dc:title />
      </cc:Work>
    </rdf:RDF>
  </metadata>
  <g
     inkscape:label="Layer 1"
     inkscape:groupmode="layer"
     id="layer1"
     style="display:inline">
    <g
       id="alligator">
      <g
         transform="translate(-75.932638,-22.987616)"
         inkscape:label="#g3021"
         id="body">
        <path
           inkscape:connector-curvature="0"
           id="path3016"
           class="border"
           style="fill-opacity:1;fill-rule:nonzero;stroke:none"
           d="m 261.42412,83.734746 c -1.94946,-3.40943 -3.6267,-5.19104 -5.47485,-5.4126 -1.87438,-0.2246 -3.51623,1.06446 -5.34301,3.80189 -0.69214,-0.0262 -1.38916,-0.0379 -2.09107,-0.0385 -1.79199,-3.56873 -3.36364,-5.39063 -5.32165,-5.401 0,0 -0.005,0 -0.005,0 -2.06359,-0.01 -3.96484,2.09593 -6.44409,6.40013 -0.39368,0.0635 -0.78858,0.13002 -1.18408,0.19898 -3.09021,-3.5852 -5.28382,-5.2362 -7.25158,-4.90295 -2.17774,0.36865 -3.45033,2.88391 -4.66737,7.60925 0,0 0.19104,0.0482 0.19104,0.0482 -0.41321,0.11962 -0.82641,0.24169 -1.2384,0.3662 0,0 0.3064,-0.27344 0.3064,-0.27344 -2.71667,-3.06274 -4.81324,-4.39025 -6.84387,-3.78966 -2.6593,0.78491 -4.48792,5.46996 -4.78883,7.96935 -0.58899,0.22766 -1.17736,0.45777 -1.76147,0.69154 0,0 -0.96008,-0.47303 -0.96008,-0.47303 -3.396,-2.27479 -5.7489,-3.07495 -7.53785,-2.23877 -1.37267,1.25916 -2.29247,3.96972 -2.90161,7.67151 -1.81274,0.85082 -4.69176,-5.9198 -9.07654,-3.51196 -1.88171,1.03332 -2.59582,4.0509 -2.84972,9.520264 0,0 0.0125,6.1e-4 0.0125,6.1e-4 -0.0495,0.0256 -0.0989,0.0525 -0.14832,0.0794 -4.17297,-2.135014 -6.86157,-2.767344 -8.63829,-1.615 -1.71265,1.11145 -2.18689,3.56813 -1.93482,7.62451 -0.15991,0.0952 -0.318,0.19165 -0.47668,0.28627 -4.11378,-2.44263 -6.77369,-3.39295 -8.58888,-2.34193 -1.82616,1.05653 -2.27721,3.7854 -1.92749,8.66944 -0.49438,0.27892 -0.99426,0.55664 -1.49657,0.83251 -3.60779,-2.06299 -6.04188,-2.73376 -7.78076,-1.81151 -1.77308,0.94116 -2.43897,3.24279 -2.48719,7.10815 -0.28381,0.13794 -0.56945,0.27526 -0.8551,0.41321 -3.62854,-2.44385 -6.07666,-3.47656 -7.88635,-2.71546 -1.88721,0.79529 -2.59949,3.18421 -2.65809,7.53785 -0.57434,0.24962 -1.15051,0.49987 -1.72912,0.7489 -4.03259,-2.52686 -6.70593,-3.50709 -8.60352,-2.72095 -2.00012,0.82885 -2.74963,3.22692 -2.84118,7.41637 -0.2362,0.094 -0.4718,0.18617 -0.70801,0.27772 -3.5675,-2.49939 -5.99793,-3.6206 -7.81983,-3.01209 -1.95251,0.65369 -2.76061,2.89185 -2.92785,7.05506 -0.10315,0.0385 -0.20691,0.0751 -0.31006,0.11288 -3.17139,-2.58912 -5.4364,-3.60657 -7.29492,-2.93458 -1.87012,0.67689 -2.89368,2.87781 -3.58398,6.7212 -0.24537,0.0818 -0.49012,0.16296 -0.73425,0.24536 -3.33437,-3.20862 -5.653091,-4.69116 -7.626351,-4.11987 -2.00928,0.58227 -3.0835,3.0725 -3.87573,7.79419 -5.4828,1.67418 -10.70679,3.15978 -15.5066,4.41893 0,0 -0.24414,2.72645 -0.24414,2.72645 27.280281,12.51099 42.796031,11.53443 62.413331,9.55017 4.10584,-0.19775 8.1958,-0.61278 12.26807,-1.19995 6.286,-0.54443 13.16345,-0.96435 20.9851,-0.95521 8.042,0.006 17.16004,0.82399 26.62231,1.66993 36.10597,3.23181 77.09474,6.90002 86.72974,-31.20422 1.31226,-5.18372 1.43739,-10.38147 0.4889,-15.46875 -0.97107,-5.21118 -3.06457,-10.29114 -6.15784,-15.108034 -4.91333,-7.64832 -11.64551,-12.13624 -19.43421,-14.31702 0,0 0,0 0,0 z" />
        <path
           inkscape:connector-curvature="0"
           id="path3018"
           class="skin"
           style="fill-opacity:1;fill-rule:nonzero;stroke:none"
           d="m 155.66729,119.3451 c 0.0928,-1.78223 0.35889,-2.8009 0.89112,-3.08228 0.57312,-0.30395 1.6693,10e-4 3.38439,0.88258 -1.39586,0.73852 -2.82531,1.47155 -4.27551,2.1997 0,0 0,0 0,0 z m -11.41356,5.39551 c 0.075,-2.18627 0.32408,-3.33985 0.84655,-3.56079 0.58593,-0.24536 1.78467,0.28443 3.6847,1.4917 -1.48988,0.6964 -3.00294,1.38672 -4.53125,2.06909 0,0 0,0 0,0 z m -13.18238,5.57923 c 0.10013,-2.13807 0.39611,-3.31299 1.01318,-3.57118 0.719,-0.29601 2.07581,0.19776 4.21326,1.43128 -1.73156,0.72327 -3.47413,1.43738 -5.22644,2.1399 0,0 0,0 0,0 z m -11.43798,4.4049 c 0.12325,-2.00867 0.39184,-3.04993 0.89721,-3.21838 0.6134,-0.20509 1.79078,0.33386 3.61145,1.52405 -1.50085,0.57373 -3.00599,1.13953 -4.50866,1.69433 0,0 0,0 0,0 z m -10.97169,3.90503 c 0.39246,-1.74195 0.82702,-2.7124 1.40258,-2.92115 0.59144,-0.2124 1.58998,0.24598 3.0896,1.35865 -1.50328,0.53223 -3.0011,1.05164 -4.49218,1.5625 0,0 0,0 0,0 z m -12.292481,4.03077 c 0.47546,-2.54884 0.95093,-3.86353 1.57226,-4.04114 0.63965,-0.18616 1.82923,0.63292 3.692631,2.36084 -1.774901,0.57556 -3.529661,1.13586 -5.264891,1.6803 0,0 0,0 0,0 z m 92.807611,-42.26929 c 0.21363,-3.266604 0.56458,-5.015264 1.24206,-5.386964 0.62013,-0.34058 2.07948,0.52733 4.55445,2.46032 -1.98913,0.97106 -3.92333,1.95008 -5.79651,2.926644 0,0 0,0 0,0 z m -10.87646,5.99792 c -0.0549,-1.9983 0.13671,-3.15552 0.67932,-3.50891 0.59327,-0.38452 1.8634,-0.0733 3.94165,0.88013 -1.61133,0.8966 -3.15491,1.77551 -4.62097,2.62878 0,0 0,0 0,0 z m -11.01745,6.67175 c -0.14954,-2.74292 -0.002,-4.20898 0.57555,-4.54346 0.59388,-0.34301 2.00013,0.21668 4.32984,1.54236 -0.43091,0.26734 -0.85144,0.52979 -1.25976,0.78492 -1.17738,0.74036 -2.39503,1.48071 -3.64563,2.21618 0,0 0,0 0,0 z m 86.69311,-30.706784 c 0.65429,-0.81543 1.18653,-1.20118 1.63513,-1.14747 0.52307,0.0629 1.1261,0.60303 1.8573,1.63025 -1.14685,-0.20446 -2.31263,-0.36255 -3.49243,-0.48278 0,0 0,0 0,0 z m -13.55652,0.2179 c 1.24817,-2.00563 2.12097,-2.99134 2.76367,-2.98768 0,0 -0.005,0 -0.005,0 0.55846,0.002 1.23718,0.87219 2.1405,2.57813 -1.6156,0.0788 -3.25074,0.2179 -4.89869,0.40955 0,0 0,0 0,0 z m -25.86853,6.50695 c 0.86609,-2.43469 1.58935,-3.73352 2.3236,-3.94959 0.6305,-0.18554 1.62171,0.52857 3.09326,2.09229 -1.81273,0.5835 -3.62121,1.20545 -5.41686,1.8573 0,0 0,0 0,0 z m 12.31445,-3.87878 c 0.71228,-2.51892 1.297,-3.83606 1.92688,-3.94226 0.66223,-0.11175 1.76513,0.77454 3.47107,2.66174 -1.79199,0.3772 -3.59557,0.80627 -5.39795,1.28052 0,0 0,0 0,0 z m -25.81299,9.40185 c 0.22462,-2.17712 0.578,-3.39172 1.18225,-3.67431 0.63843,-0.29846 1.87928,0.20324 3.8678,1.4685 -1.70532,0.71777 -3.39111,1.45507 -5.05005,2.20581 0,0 0,0 0,0 z" />
        <path
           inkscape:connector-curvature="0"
           id="path3020"
           class="skin"
           style="fill-opacity:1;fill-rule:nonzero;stroke:none"
           d="m 251.5346,85.089116 c 0,0 0.47607,0.27649 0.47607,0.27649 0.047,-0.0806 0.0946,-0.15809 0.13855,-0.23621 2.53724,0.17822 4.99573,0.54566 7.35292,1.12915 0.0561,0.10562 0.11287,0.2118 0.16967,0.32044 0,0 0.35218,-0.18615 0.35218,-0.18615 7.42003,1.95067 13.8031,6.08215 18.38866,13.22143 2.89734,4.512944 4.85352,9.244994 5.75317,14.072274 0.87037,4.67346 0.75257,9.45495 -0.45348,14.23278 -1.01135,3.99598 -2.40784,7.49695 -4.13635,10.56579 -24.62037,-11.95739 -52.30042,-3.27697 -81.69739,5.94239 -15.00671,4.70581 -30.4657,9.55445 -46.12794,11.80848 -3.37157,0.29296 -6.56371,0.61828 -9.64111,0.93383 -0.77392,0.0787 -1.53869,0.15687 -2.29736,0.23438 -0.76904,0.0366 -1.53809,0.0678 -2.30651,0.0885 0,0 0.002,0.1416 0.002,0.1416 -17.28516,1.68945 -31.70533,2.17041 -55.048231,-7.85218 14.47694,-3.97644 32.078251,-9.7345 48.963031,-16.47826 15.16906,-6.05653 29.77355,-12.91383 41.04613,-19.9994 14.06555,-8.84033 42.68615,-24.702754 67.79785,-27.783814 2.17774,-0.26733 4.328,-0.4364 6.43921,-0.49683 0.007,0.0182 0.014,0.0347 0.0226,0.0525 0,0 0.12387,-0.0555 0.12387,-0.0555 1.58508,-0.0421 3.14635,-0.0207 4.68139,0.0684 0,0 0,0 0,0 z" />
        <path
           inkscape:connector-curvature="0"
           id="path3022"
           class="skin"
           style="fill-opacity:1;fill-rule:nonzero;stroke:none"
           d="m 199.50946,146.96046 c 0.44373,1.50818 1.22375,3.64929 2.18261,5.68115 0.57984,1.23474 1.73157,3.12195 2.82715,4.6991 -1.49413,-0.13001 -2.98462,-0.26428 -4.46472,-0.39551 -9.51478,-0.85327 -18.68591,-1.67298 -26.88599,-1.68213 -0.66772,0 -1.32995,0.003 -1.98425,0.009 9.32068,-2.3529 18.52051,-5.23742 27.55676,-8.07067 0.25635,-0.0817 0.51148,-0.16114 0.76844,-0.24109 0,0 0,0 0,0 z" />
        <path
           inkscape:connector-curvature="0"
           id="path3024"
           class="skin"
           style="fill-opacity:1;fill-rule:nonzero;stroke:none"
           d="m 212.1596,143.06459 c 0.50171,2.29858 1.35865,4.83642 2.45972,7.19726 1.09009,2.34009 3.31359,5.94849 5.17822,8.21411 -4.45252,-0.23986 -8.93433,-0.58898 -13.37585,-0.97106 -1.19324,-1.59303 -2.74109,-4.04114 -3.41797,-5.48035 -0.94482,-2.00928 -1.70777,-4.09424 -2.11731,-5.49621 3.79028,-1.18714 7.54944,-2.35658 11.27319,-3.46375 0,0 0,0 0,0 z" />
        <path
           inkscape:connector-curvature="0"
           id="path3026"
           class="skin"
           style="fill-opacity:1;fill-rule:nonzero;stroke:none"
           d="m 228.71172,138.64502 c 0.38697,2.7826 1.38428,5.80323 2.56714,8.61512 1.67848,3.98682 4.29566,8.7555 5.87891,11.41114 -4.97558,0.21972 -10.12085,0.14526 -15.31861,-0.094 -1.83654,-1.7981 -4.66735,-6.27992 -5.90149,-8.92823 -1.07421,-2.3053 -1.90735,-4.77966 -2.37976,-6.9989 5.12208,-1.50208 10.17701,-2.87538 15.15381,-4.00514 0,0 0,0 0,0 z" />
        <path
           inkscape:connector-curvature="0"
           id="path3028"
           class="skin"
           style="fill-opacity:1;fill-rule:nonzero;stroke:none"
           d="m 253.99554,156.44899 c -1.156,-1.18225 -3.58277,-5.26184 -5.61035,-10.24414 -1.32874,-3.26111 -2.44263,-6.88294 -2.85705,-10.30151 11.39892,-0.98389 22.28453,0.18126 32.50671,5.07506 -5.6482,8.3429 -14.08631,13.02064 -24.03931,15.47059 0,0 0,0 0,0 z" />
        <path
           inkscape:connector-curvature="0"
           id="path3030"
           class="skin"
           style="fill-opacity:1;fill-rule:nonzero;stroke:none"
           d="m 244.07794,136.03822 c 0.42786,3.57117 1.58447,7.33459 2.9602,10.71472 1.77368,4.35486 3.97888,8.11096 5.49377,10.03845 -4.38049,0.96925 -9.03747,1.53199 -13.8623,1.80481 -1.25549,-2.08922 -4.18945,-7.47864 -6.05041,-11.8988 -1.15784,-2.75208 -2.1283,-5.69641 -2.4823,-8.36975 4.72167,-1.02784 9.37072,-1.82556 13.94104,-2.28943 0,0 0,0 0,0 z" />
        <path
           inkscape:connector-curvature="0"
           id="path3032"
           style="fill-opacity:1;fill-rule:evenodd;stroke:none"
           d="m 217.74615,126.0132 c 2.13684,12.12219 -9.87183,24.27734 -9.5636,35.62621 3.48755,0.18738 6.15967,-2.3053 7.01355,-2.45605 -0.5835,0.1025 -1.18774,3.06153 -1.52221,6.39588 2.60681,-0.28015 5.51575,-3.3014 6.15661,-3.41431 0.20386,1.92077 -0.70008,4.79553 -0.48035,5.65368 20.94849,-9.7998 31.13709,-32.38281 30.62561,-39.65637 0,0 -32.22961,-2.14904 -32.22961,-2.14904 0,0 0,0 0,0 z"
           class="skin" />
        <path
           inkscape:connector-curvature="0"
           id="path3034"
           style="fill-opacity:1;fill-rule:nonzero;stroke:none"
           d="m 229.37762,159.77663 c -3.58582,-0.71717 -7.06177,-1.96168 -10.11841,-3.85072 -2.5409,-1.56677 -4.79492,-3.58032 -6.5802,-6.10351 0.51575,-1.19508 1.06445,-2.40051 1.61499,-3.6084 4.469,-9.8175 6.87012,-15.64514 2.75391,-25.62744 0.66589,7.06848 -0.3296,14.13696 -5.39979,24.42444 -2.55676,5.61462 -5.07262,11.14075 -4.92308,16.67053 0,0 0.0373,1.33545 0.0373,1.33545 2.1399,0.11475 3.88306,0.0537 5.90515,-0.85877 -0.29175,1.67603 -0.448,3.36732 -0.61829,5.06043 2.03614,-0.32104 3.16772,-0.77393 6.11085,-2.10144 -0.28383,1.7688 -0.22828,3.00781 0.21972,4.76013 9.13635,-4.27429 16.474,-9.97742 22.65075,-17.97486 7.3584,-9.52941 11.04188,-17.77953 9.80469,-29.41588 -1.9934,9.3573 -3.82262,17.70263 -12.10387,27.64221 -2.60438,3.37036 -5.72144,6.68579 -9.35364,9.64783 0,0 0,0 0,0 z"
           class="border" />
        <path
           inkscape:connector-curvature="0"
           id="path3036"
           class="skin"
           style="fill-opacity:1;fill-rule:nonzero;stroke:none"
           d="m 211.71282,152.1576 c 1.81763,2.27845 3.99353,4.13636 6.40015,5.62195 2.76855,1.7096 5.84229,2.92725 9.02527,3.7262 0,0 -6.07544,3.82935 -6.07544,3.82935 0,0 0.0489,-4.87794 0.0489,-4.87794 0,0 -5.70738,2.96937 -5.70738,2.96937 0,0 -0.45533,-5.68177 -0.45533,-5.68177 0,0 -5.27282,2.33887 -5.27282,2.33887 0,0 2.03673,-7.92603 2.03673,-7.92603 0,0 0,0 0,0 z" />
        <path
           inkscape:connector-curvature="0"
           id="path3038"
           style="fill-opacity:1;fill-rule:evenodd;stroke:none"
           d="m 144.37456,136.63392 c 0.31923,12.30408 -13.35997,22.54578 -14.73632,33.81409 3.42041,0.70252 6.43372,-1.36597 7.2992,-1.38793 -0.59204,0.0146 -1.62659,2.85095 -2.453,6.09923 2.62024,0.10925 5.94542,-2.44812 6.59424,-2.46398 -0.0824,1.92932 -1.40259,4.63806 -1.31227,5.51941 22.16919,-6.5857 35.59327,-27.41089 36.16517,-34.67958 0,0 -31.55702,-6.90124 -31.55702,-6.90124 0,0 0,0 0,0 z"
           class="skin" />
        <path
           inkscape:connector-curvature="0"
           id="path3040"
           style="fill-opacity:1;fill-rule:nonzero;stroke:none"
           d="m 150.8742,171.74806 c -3.43994,-1.24085 -6.69129,-2.98767 -9.43542,-5.30701 -2.28028,-1.9281 -4.21143,-4.25231 -5.60364,-7.01171 0.68909,-1.10719 1.41052,-2.21498 2.13257,-3.32948 5.87585,-9.04601 9.11255,-14.45374 6.52283,-24.93714 -0.39001,7.08985 -2.42066,13.93312 -8.96058,23.3545 -3.36181,5.17457 -6.66808,10.26673 -7.33824,15.75746 0,0 -0.16175,1.3269 -0.16175,1.3269 2.09899,0.42968 3.83178,0.62622 5.96679,0.0263 -0.53588,1.61376 -0.943,3.26232 -1.3623,4.91088 2.06177,-0.0146 3.24829,-0.2948 6.35559,-1.17005 -0.5426,1.70472 -0.67139,2.94007 -0.48767,4.73755 9.66797,-2.87231 17.76916,-7.42492 25.06408,-14.41955 8.69019,-8.33252 13.5553,-15.94544 14.05518,-27.63795 -3.35876,8.96058 -6.40259,16.94214 -16.06629,25.54505 -3.07495,2.94739 -6.64977,5.76355 -10.68115,8.1543 0,0 0,0 0,0 z"
           class="border" />
        <path
           inkscape:connector-curvature="0"
           id="path3042"
           class="skin"
           style="fill-opacity:1;fill-rule:nonzero;stroke:none"
           d="m 134.53448,161.59548 c 1.45996,2.52257 3.33741,4.682 5.49561,6.50695 2.48596,2.10205 5.34485,3.7616 8.37464,5.02381 0,0 -6.57654,2.88696 -6.57654,2.88696 0,0 0.77086,-4.8169 0.77086,-4.8169 0,0 -6.08336,2.09045 -6.08336,2.09045 0,0 0.39122,-5.68664 0.39122,-5.68664 0,0 -5.5603,1.53259 -5.5603,1.53259 0,0 3.18787,-7.53722 3.18787,-7.53722 0,0 0,0 0,0 z" />
        <path
           inkscape:connector-curvature="0"
           id="path3084"
           style="fill-opacity:1;fill-rule:evenodd;stroke:none"
           d="m 210.86139,96.290896 c -2.33827,0.57374 -3.95508,2.23145 -3.62794,3.759164 0.33875,1.5686 2.60742,2.42004 5.05371,1.89331 1.05164,-0.22645 1.96961,-0.67261 2.64649,-1.2317 -0.0659,0.0165 -0.13184,0.0311 -0.19898,0.0457 -2.44506,0.52734 -4.71435,-0.32471 -5.0531,-1.893314 -0.19165,-0.89416 0.28259,-1.8335 1.17982,-2.57325 0,0 0,0 0,0 z M 165.1131,124.6515 c -2.90772,1.18286 -4.6576,3.66944 -3.90015,5.5365 0.75989,1.86462 3.75,2.4237 6.65894,1.23962 0.6195,-0.2533 1.18652,-0.56396 1.68884,-0.91613 -2.65259,0.80688 -5.20508,0.19408 -5.89905,-1.51002 -0.59632,-1.4679 0.3595,-3.31908 2.21008,-4.61852 -0.25268,0.0769 -0.50537,0.16479 -0.75866,0.26855 0,0 0,0 0,0 z m 19.94811,-0.99121 c -3.49915,1.14623 -5.75317,3.90686 -5.0238,6.15601 0.7312,2.25525 4.19495,3.16527 7.70935,2.02392 0.92224,-0.29846 1.75781,-0.70923 2.47925,-1.19507 -0.0113,0.004 -0.022,0.007 -0.0311,0.01 -3.5144,1.14136 -6.97754,0.23132 -7.70874,-2.02453 -0.53955,-1.66443 0.55299,-3.60778 2.57507,-4.9701 0,0 0,0 0,0 z m -3.9386,-12.51648 c -3.08289,2.03674 -4.53063,5.30945 -3.22449,7.28881 1.30615,1.97877 4.88587,1.93238 7.96998,-0.10437 0.004,-0.003 0.008,-0.005 0.0127,-0.009 -2.34314,0.7489 -4.56481,0.39551 -5.53405,-1.07239 -1.30555,-1.97631 0.13671,-5.24292 3.20861,-7.27905 -0.81115,0.26001 -1.63879,0.65124 -2.43286,1.17554 0,0 0,0 0,0 z m 17.2815,-4.94507 c -3.08411,2.03613 -4.53247,5.30945 -3.22571,7.28882 1.30676,1.97876 4.88647,1.93238 7.96936,-0.10437 0.005,-0.001 0.007,-0.005 0.0125,-0.008 -2.34192,0.74891 -4.5636,0.39551 -5.53284,-1.0736 -1.30432,-1.9751 0.13672,-5.2417 3.20984,-7.27905 -0.8136,0.26 -1.64001,0.65123 -2.43286,1.17613 0,0 0,0 0,0 z m 5.5365,14.64538 c -3.46557,1.28358 -5.61767,4.14429 -4.7937,6.36842 0.82275,2.2229 4.32068,2.9895 7.78443,1.70532 0.7666,-0.28504 1.46972,-0.64515 2.09045,-1.05957 -3.34534,1.10351 -6.63209,0.31432 -7.42677,-1.83228 -0.64208,-1.73096 0.52124,-3.84826 2.70325,-5.3064 -0.11962,0.0396 -0.23926,0.08 -0.35766,0.1245 0,0 0,0 0,0 z m 11.56128,-14.86755 c -2.69165,0.81543 -4.52882,2.66235 -4.32862,4.59473 0.24475,2.3584 3.44178,3.97034 7.1167,3.58886 1.71204,-0.177 3.23303,-0.75744 4.34509,-1.56432 -0.59509,0.17943 -1.23107,0.30945 -1.89696,0.37902 -3.67433,0.38148 -6.87135,-1.23107 -7.1167,-3.58947 -0.13063,-1.25915 0.60669,-2.48292 1.88049,-3.40882 0,0 0,0 0,0 z M 227.3952,94.054566 c -2.69104,0.81544 -4.53003,2.66297 -4.32984,4.59473 0.24536,2.357794 3.44178,3.970954 7.1167,3.588874 1.71204,-0.17761 3.23425,-0.75683 4.3451,-1.56495 -0.59571,0.18067 -1.23047,0.31007 -1.89636,0.37904 -3.67494,0.38208 -6.87195,-1.231094 -7.1167,-3.588874 -0.13001,-1.25977 0.60669,-2.48352 1.8811,-3.40882 0,0 0,0 0,0 z m 8.62426,11.342784 c -2.83081,0.90942 -4.76684,2.82287 -4.67467,4.94324 0.12087,2.83325 3.8208,4.99085 8.2373,4.80102 2.1936,-0.0934 4.16016,-0.7489 5.57007,-1.73217 -0.95215,0.307 -2.00745,0.49987 -3.12195,0.54748 -4.41529,0.1892 -8.11646,-1.969 -8.23852,-4.80286 -0.0604,-1.42639 0.79711,-2.7594 2.22777,-3.75671 0,0 0,0 0,0 z m 10.77333,-15.156864 c -3.07435,1.01623 -5.1471,3.17077 -4.9115,5.41808 0.2954,2.82228 4.12292,4.747334 8.51867,4.2859 1.93848,-0.20263 3.67004,-0.83618 4.97803,-1.72425 -0.78492,0.26063 -1.63514,0.44434 -2.52992,0.53894 -4.39696,0.46083 -8.22265,-1.46422 -8.51867,-4.28589 -0.1654,-1.57715 0.80506,-3.10791 2.46339,-4.23278 0,0 0,0 0,0 z M 102.84748,144.49647 c -2.50123,0.6958 -4.219981,2.4237 -3.975841,4.15528 0.28137,1.97997 3.026121,3.23912 6.112061,2.80211 1.41296,-0.20019 2.65808,-0.72265 3.5669,-1.41906 -0.35829,0.0995 -0.73181,0.17822 -1.11877,0.23315 -3.08655,0.43762 -5.8307,-0.82153 -6.11207,-2.80151 -0.15197,-1.0736 0.45167,-2.14478 1.52772,-2.96997 0,0 0,0 0,0 z m 16.10717,-3.82873 c -2.10571,0.4718 -3.59802,1.87987 -3.39966,3.29162 0.2179,1.52833 2.33399,2.49878 4.71619,2.16125 1.21338,-0.1709 2.26624,-0.65246 2.97974,-1.28295 -0.17273,0.0385 -0.35095,0.072 -0.53101,0.097 -2.3822,0.33753 -4.49891,-0.63415 -4.71618,-2.16125 -0.1056,-0.74951 0.2655,-1.49719 0.95092,-2.10571 0,0 0,0 0,0 z m 12.44568,-4.59412 c -3.24524,1.31958 -5.19959,4.09545 -4.35241,6.1792 0.84716,2.08129 4.18273,2.70385 7.42858,1.38305 0.63904,-0.26001 1.22803,-0.57678 1.75598,-0.93383 -3.01574,0.9729 -5.95032,0.29907 -6.73707,-1.63453 -0.67992,-1.67236 0.44434,-3.7915 2.594,-5.24475 -0.2301,0.0739 -0.4596,0.15748 -0.68908,0.25086 0,0 0,0 0,0 z"
           class="border" />
      </g>
      <g
         inkscape:transform-center-x="-36.440678"
         inkscape:transform-center-y="-37.288136"
         transform="matrix(0.93969262,-0.34202014,0.34202014,0.93969262,-100.69206,76.594708)"
         inkscape:label="#g6999"
         id="face">
        <path
           class="border"
           inkscape:connector-curvature="0"
           id="path3044"
           style="fill-opacity:1;fill-rule:nonzero;stroke:none"
           d="m 308.67755,114.10951 c 1.52039,1.7102 3.02185,3.2312 4.28589,4.25659 1.46545,1.18835 2.80151,1.75659 3.85192,1.38489 0,0 0.56946,-0.35584 0.56946,-0.35584 0.64392,-0.62378 1.0376,-1.8457 1.20849,-3.48876 0.14039,-1.33484 0.17151,-3.01148 0.108,-4.89137 0.96924,-0.30212 1.94031,-0.6073 2.91443,-0.9143 0.83252,1.85669 1.67236,3.51623 2.4347,4.7235 1.00036,1.58814 2.06055,2.57813 3.12987,2.63429 0,0 0.67261,-0.11287 0.67261,-0.11287 1.0022,-0.41625 1.9342,-1.86402 2.73499,-3.98438 0.66711,-1.76452 1.33728,-4.12902 1.93848,-6.79565 0.29602,-0.0983 0.58776,-0.19714 0.88256,-0.29662 0.63172,1.27623 1.25306,2.38768 1.8274,3.22631 0.88927,1.29516 1.83166,2.08312 2.80517,2.13317 0,0 0.67505,-0.11112 0.67505,-0.11112 0.91248,-0.38025 1.75415,-1.58448 2.48352,-3.36121 0.56152,-1.36535 1.12548,-3.15003 1.64856,-5.18433 0.60425,-0.2185 1.20484,-0.43945 1.80664,-0.66222 0.83496,1.90612 1.69251,3.65295 2.48841,4.9823 1.08642,1.8164 2.23449,2.9718 3.3728,3.031 0,0 0.67505,-0.11113 0.67505,-0.11113 1.10046,-0.45959 2.14844,-2.24854 3.03894,-4.84436 0.69702,-2.03369 1.38611,-4.66491 1.98181,-7.554314 1.32019,2.284534 2.70752,4.477534 3.94165,6.116324 1.58691,2.1045 3.13904,3.41493 4.42444,3.25013 0,0 0.64026,-0.2362 0.64026,-0.2362 1.08092,-0.69275 1.90735,-2.98829 2.43469,-6.15297 0.40711,-2.456054 0.70556,-5.548084 0.85022,-8.839714 0.47485,-0.25147 0.9497,-0.50232 1.41724,-0.75684 2.32421,-1.26098 4.32556,-2.61047 6.02234,-4.01733 4.24865,-3.52052 6.64428,-7.42798 7.55066,-11.27564 0,0 10e-4,0.005 10e-4,0.005 0.9253,-3.9209 0.29969,-7.75513 -1.49231,-11.05714 -0.52306,-0.96619 -1.14624,-1.88415 -1.85485,-2.74047 -1.95618,-2.3584 -4.58801,-3.9862 -7.54211,-4.95423 -3.75733,-1.23169 -8.04688,-1.40564 -12.11122,-0.672 -4.0686,0.73548 -7.94921,2.39259 -10.87463,4.8169 -1.93603,1.604 -3.4558,3.54248 -4.35608,5.77454 -0.5664,0.17211 -1.07421,0.33264 -1.64856,0.51209 -9.06555,2.8479 -31.97326,10.04638 -41.32508,4.25536 -7.41576,-5.75256 -15.72753,-7.09716 -23.25072,-5.11596 -4.86634,1.28173 -9.38904,3.95691 -13.10548,7.7301 -3.69995,3.7561 -6.60766,8.59985 -8.26355,14.23401 -3.25866,11.0852 -1.68028,25.242924 8.25379,40.162964 0,0 0.8844,1.32996 0.8844,1.32996 0,0 1.30738,-0.91615 1.30738,-0.91615 6.86401,-4.8114 22.41821,-9.5874 40.29541,-15.07506 0.0885,-0.0269 0.17761,-0.0544 0.26611,-0.0817 0,0 0,0 0,0 z" />
        <path
           inkscape:connector-curvature="0"
           id="path3046"
           style="fill-opacity:1;fill-rule:nonzero;stroke:none"
           class="skin"
           d="m 267.67474,125.83436 c -8.60718,-13.57544 -9.94507,-26.304944 -7.0166,-36.275024 1.50635,-5.12452 4.14001,-9.51965 7.48718,-12.91565 3.32824,-3.37952 7.35962,-5.77088 11.68762,-6.9104 6.65222,-1.7511 14.03626,-0.531 20.6421,4.63867 0,0 0.1361,0.0989 0.1361,0.0989 10.55115,6.58325 34.47753,-0.93384 43.94103,-3.90747 1.08765,-0.34179 2.0105,-0.63233 2.35353,-0.73364 0,0 0.7843,-0.23376 0.7843,-0.23376 0,0 0.2533,-0.77272 0.2533,-0.77272 0.65062,-1.98058 1.94457,-3.70422 3.656,-5.12206 2.49877,-2.07092 5.87219,-3.49487 9.45069,-4.14124 3.58458,-0.6482 7.33581,-0.50537 10.58471,0.55848 2.42492,0.79529 4.56299,2.10144 6.11084,3.97094 0.58716,0.7074 1.0962,1.45813 1.52282,2.24243 1.43494,2.64649 1.93665,5.71839 1.19569,8.85743 0,0 0.003,0.006 0.003,0.006 -0.75806,3.21472 -2.8186,6.52526 -6.5033,9.58007 -1.55213,1.28602 -3.38684,2.5232 -5.52551,3.68348 -0.81115,0.44067 -1.63635,0.87646 -2.47375,1.30676 0,0 -0.50538,-0.0112 -0.50538,-0.0112 -0.002,0.0904 -0.005,0.18128 -0.007,0.27221 -16.82922,8.56019 -38.7268,15.282604 -57.95105,21.184094 -17.07641,5.24231 -32.06299,9.84314 -39.82544,14.62341 0,0 0,0 0,0 z" />
        <path
           inkscape:connector-curvature="0"
           id="path3048"
           style="fill-opacity:1;fill-rule:nonzero;stroke:none"
           class="skin"
           d="m 329.04864,107.71546 c -0.44373,1.7566 -0.91187,3.30994 -1.38062,4.5459 -0.24231,0.64331 -0.45287,1.16639 -0.62072,1.54175 -0.0866,-0.17517 -0.20325,-0.38757 -0.35828,-0.63232 -0.64881,-1.03089 -1.36597,-2.43469 -2.08862,-4.01734 1.48071,-0.47363 2.96325,-0.95154 4.44824,-1.43799 0,0 0,0 0,0 z" />
        <path
           inkscape:connector-curvature="0"
           id="path3050"
           style="fill-opacity:1;fill-rule:nonzero;stroke:none"
           class="skin"
           d="m 339.25982,104.25721 c -0.31372,1.04614 -0.62866,1.96473 -0.93995,2.72034 -0.15013,0.36804 -0.28381,0.68237 -0.39793,0.93445 -0.0292,-0.0538 -0.0659,-0.11225 -0.10863,-0.17334 -0.43945,-0.64087 -0.92224,-1.49292 -1.42272,-2.48414 0.95763,-0.32958 1.91527,-0.66101 2.86926,-0.99731 0,0 0,0 0,0 z" />
        <path
           inkscape:connector-curvature="0"
           id="path3052"
           style="fill-opacity:1;fill-rule:nonzero;stroke:none"
           class="skin"
           d="m 365.29315,93.585206 c -0.15686,2.49818 -0.40161,4.80835 -0.71716,6.701664 -0.25208,1.51795 -0.49622,2.69837 -0.71473,3.3844 -0.26977,-0.35278 -0.69275,-0.9137 -1.21765,-1.61132 -1.11022,-1.47339 -2.37305,-3.458254 -3.59252,-5.557864 2.13622,-0.94788 4.2218,-1.91895 6.24206,-2.91688 0,0 0,0 0,0 z" />
        <path
           inkscape:connector-curvature="0"
           id="path3054"
           style="fill-opacity:1;fill-rule:nonzero;stroke:none"
           class="skin"
           d="m 352.72356,99.186406 c -0.45715,1.967164 -0.94542,3.736584 -1.43859,5.170904 -0.35401,1.03149 -0.65918,1.84204 -0.89538,2.35535 -0.13794,-0.25696 -0.32533,-0.60181 -0.57495,-1.01746 -0.69398,-1.16028 -1.46485,-2.73315 -2.23634,-4.48548 1.73401,-0.66222 3.45032,-1.336064 5.14526,-2.023314 0,0 0,0 0,0 z" />
        <path
           inkscape:connector-curvature="0"
           id="path3056"
           style="fill-opacity:1;fill-rule:nonzero;stroke:none"
           class="skin"
           d="m 315.59589,111.97999 c 0.0269,1.42578 -0.004,2.65442 -0.10313,3.61145 -0.033,0.31067 -0.0641,0.57983 -0.0959,0.80445 -0.116,-0.1294 -0.26734,-0.2832 -0.46937,-0.44678 -0.84472,-0.68482 -1.8628,-1.68275 -2.94922,-2.85279 1.19751,-0.36865 2.40417,-0.74036 3.61756,-1.11633 0,0 0,0 0,0 z" />
        <path
           class="border"
           inkscape:connector-curvature="0"
           id="path3058"
           style="fill-opacity:1;fill-rule:evenodd;stroke:none"
           d="m 373.04705,65.508436 c -1.71081,-0.87403 -8.16528,-3.84522 -12.06909,-3.21839 -4.10705,0.65979 -5.32287,5.24902 2.77833,3.57727 0,0 3.98071,-0.82153 3.98071,-0.82153 0,0 5.31005,0.46265 5.31005,0.46265 0,0 0,0 0,0 z" />
        <path
           class="border"
           inkscape:connector-curvature="0"
           id="path3060"
           style="fill-opacity:1;fill-rule:nonzero;stroke:none"
           d="m 274.37091,74.458616 c -1.45264,2.89185 -2.08985,6.22925 -1.64795,9.66859 1.1792,9.19311 9.63989,15.72815 18.833,14.54773 4.59718,-0.5896 8.52966,-3.00049 11.16455,-6.41235 2.40784,-3.11707 3.7323,-7.07398 3.49244,-11.24085 0,0 -25.42359,-7.44019 -25.42359,-7.44019 0,0 0.58838,3.27942 0.58838,3.27942 0,0 -7.00683,-2.40235 -7.00683,-2.40235 0,0 0,0 0,0 z" />
        <path
           inkscape:connector-curvature="0"
           id="path3062"
           style="fill:#f47216;fill-opacity:1;fill-rule:nonzero;stroke:none"
           d="m 302.33966,81.802366 c 0.32409,3.33985 -0.68726,6.53199 -2.60987,9.02039 -1.9989,2.58729 -4.98047,4.41406 -8.46497,4.86206 -6.97021,0.89539 -13.38561,-4.05945 -14.28038,-11.03027 -0.34303,-2.67456 0.17455,-5.26734 1.33727,-7.49756 0,0 4.55933,1.56311 4.55933,1.56311 0,0 -0.49439,-2.75756 -0.49439,-2.75756 0,0 19.95301,5.83983 19.95301,5.83983 0,0 0,0 0,0 z" />
        <path
           inkscape:connector-curvature="0"
           id="path3064"
           style="fill:#ffffff;fill-opacity:1;fill-rule:evenodd;stroke:none"
           d="m 277.65581,76.928716 c -1.19201,2.33093 -1.71935,5.03052 -1.36169,7.81433 0.94299,7.35046 7.70874,12.5763 15.0592,11.63269 7.11915,-0.91369 12.24427,-7.28698 11.7041,-14.36402 0,0 -20.67077,-6.04918 -20.67077,-6.04918 0,0 0.49439,2.75756 0.49439,2.75756 0,0 -5.22523,-1.79138 -5.22523,-1.79138 0,0 0,0 0,0 z" />
        <path
           class="border"
           inkscape:connector-curvature="0"
           id="path3066"
           style="fill-opacity:1;fill-rule:evenodd;stroke:none"
           d="m 294.05657,81.884156 c -0.15136,-1.17797 -0.46508,-2.28881 -0.87523,-3.31054 0,0 -7.34742,-2.14966 -7.34742,-2.14966 -0.63843,1.87256 -1.0669,4.19311 -0.75745,6.61194 0.72998,5.67932 5.18615,9.81506 5.8136,9.73389 0.62928,-0.0805 3.89648,-5.20813 3.1665,-10.88563 0,0 0,0 0,0 z" />
        <path
           inkscape:connector-curvature="0"
           id="path3068"
           style="fill:#ffffff;fill-opacity:1;fill-rule:evenodd;stroke:none"
           d="m 292.45074,78.907486 c -0.44678,0.71532 -0.65918,1.58263 -0.54322,2.47985 0.26612,2.0697 2.17042,3.54065 4.2389,3.27453 1.89087,-0.24231 3.28003,-1.8518 3.30383,-3.70543 0,0 -6.99951,-2.04895 -6.99951,-2.04895 0,0 0,0 0,0 z" />
      </g>
      <g
         transform="translate(-75.932638,-22.987616)"
         inkscape:label="#g3038"
         id="jaw">
        <path
           inkscape:connector-curvature="0"
           id="path3070"
           style="fill-opacity:1;fill-rule:nonzero;stroke:none"
           d="m 327.29876,143.00232 c -0.74585,-2.73986 -1.59546,-5.2539 -2.43347,-7.17833 -1.01684,-2.33215 -2.14905,-3.93433 -3.26538,-4.32252 0,0 -0.59876,-0.0855 -0.59876,-0.0855 -1.18346,0.0684 -2.3767,1.2793 -3.49243,3.13538 -0.3534,0.58839 -0.71411,1.25366 -1.07788,1.97021 -0.0817,-0.83251 -0.18128,-1.604 -0.29907,-2.29857 -0.37353,-2.19972 -1.01441,-3.80005 -1.92322,-4.42384 0,0 -0.5603,-0.23986 -0.5603,-0.23986 -1.12733,-0.23865 -2.53968,0.56091 -4.04603,1.97753 -1.14318,1.07483 -2.43163,2.5293 -3.703,4.1095 -3.80066,-3.02246 -7.43102,-7.32848 -11.0968,-11.68091 -2.30591,-2.73437 -4.62402,-5.48461 -7.0398,-7.9895 -4.77355,-4.94567 -8.97093,-7.94434 -12.61778,-9.34692 -3.46375,-1.33362 -6.47218,-1.26953 -9.04175,-0.086 -2.51832,1.16395 -4.53064,3.38867 -6.06629,6.41662 -2.16125,4.25781 -3.39355,10.17456 -3.77808,16.93176 -0.108,1.88722 -0.0842,3.68837 0.0616,5.40589 0.80016,9.39088 5.27037,15.96375 12.18384,20.3418 6.75292,4.27552 15.80687,6.3977 25.9967,6.97754 5.72082,0.32715 11.82006,0.16724 18.078,-0.36621 7.74475,-0.66101 13.25745,0.3888 19.67651,1.60889 5.96191,1.13281 12.68372,2.41088 22.50061,2.67333 8.44178,0.22705 14.10828,-2.08801 16.85914,-5.17943 1.1914,-1.3385 1.86889,-2.82715 2.02452,-4.34937 0.16053,-1.5448 -0.21606,-3.10059 -1.13647,-4.54407 -1.17493,-1.8457 -3.28064,-3.49914 -6.31591,-4.65149 0.0763,-2.28394 0.0299,-4.36279 -0.14832,-6.00891 -0.23071,-2.13013 -0.75745,-3.70362 -1.60583,-4.37317 0,0 -0.54383,-0.27527 -0.54383,-0.27527 -1.2622,-0.35766 -3.05786,0.6659 -4.99877,2.41027 -1.81337,1.62843 -3.92213,3.92395 -5.79042,6.167 -0.036,-0.002 -0.0732,-0.006 -0.11112,-0.009 -0.70496,-2.40051 -1.47766,-4.55993 -2.23328,-6.21215 -0.95215,-2.08191 -2.00683,-3.50158 -3.06336,-3.86841 0,0 -0.59754,-0.0855 -0.59754,-0.0855 -1.20666,0.0696 -2.42553,1.32995 -3.56383,3.2489 -0.72877,1.22803 -1.49719,2.79053 -2.23633,4.47083 -0.59754,-1.9281 -1.23535,-3.67432 -1.8628,-5.08057 -0.98327,-2.2052 -2.07702,-3.71337 -3.16222,-4.0918 0,0 -0.59877,-0.0849 -0.59877,-0.0849 -1.21581,0.0702 -2.45116,1.35925 -3.6029,3.31665 -0.94482,1.60705 -1.95435,3.76282 -2.87841,6.0022 -0.62379,-0.10437 -1.25306,-0.21423 -1.89087,-0.33265 0,0 0,0 0,0 z"
           class="border" />
        <path
           inkscape:connector-curvature="0"
           id="path3072"
           class="skin"
           style="fill-opacity:1;fill-rule:nonzero;stroke:none"
           d="m 285.52264,118.13844 c 2.33947,2.4231 4.62463,5.13427 6.89636,7.82958 5.95704,7.0691 11.82617,14.03504 18.93737,16.24208 14.71193,4.56481 23.7494,5.25634 35.38637,6.14685 3.81468,0.29235 7.91198,0.60546 12.58056,1.08642 5.64819,0.58105 9.13879,2.46399 10.55847,4.69238 0.52368,0.82336 0.74219,1.69739 0.65247,2.5531 -0.0904,0.87891 -0.50538,1.76698 -1.24207,2.59339 -2.20276,2.47741 -7.02148,4.32434 -14.4513,4.12415 -9.66613,-0.25879 -16.203,-1.50148 -22.00438,-2.60499 -6.65833,-1.26525 -12.37672,-2.3529 -20.51759,-1.65894 -6.10229,0.52003 -12.05078,0.67444 -17.63549,0.35707 -9.7046,-0.55359 -18.25501,-2.52869 -24.50989,-6.49048 -6.09497,-3.85865 -10.03662,-9.66493 -10.74525,-17.97241 -0.13183,-1.55518 -0.15136,-3.20802 -0.0525,-4.964 0.36255,-6.35254 1.48743,-11.84875 3.44788,-15.71228 1.21582,-2.39624 2.74292,-4.12781 4.59412,-4.98107 1.80237,-0.83192 3.99535,-0.84413 6.60949,0.16112 3.2428,1.24818 7.06178,4.00269 11.49536,8.59803 0,0 0,0 0,0 z" />
        <path
           inkscape:connector-curvature="0"
           id="path3074"
           class="skin"
           style="fill-opacity:1;fill-rule:nonzero;stroke:none"
           d="m 356.91912,146.06812 c 1.38917,-1.58386 2.81312,-3.07677 4.05274,-4.19006 0.75011,-0.67382 1.35498,-1.20117 1.71448,-1.48926 0.0842,0.39246 0.16785,0.98939 0.25023,1.745 0.14039,1.30432 0.19044,2.93701 0.15199,4.75525 -1.06812,-0.23865 -2.21802,-0.42541 -3.44971,-0.55176 -0.92895,-0.0959 -1.83533,-0.18554 -2.71973,-0.26917 0,0 0,0 0,0 z" />
        <path
           inkscape:connector-curvature="0"
           id="path3076"
           class="skin"
           style="fill-opacity:1;fill-rule:nonzero;stroke:none"
           d="m 343.93634,145.00795 c 0.75378,-1.74744 1.54296,-3.37648 2.27905,-4.61915 0.35095,-0.5896 0.63293,-1.06079 0.81787,-1.35925 0.22888,0.37902 0.53284,0.98694 0.8905,1.76636 0.57313,1.25794 1.16639,2.85584 1.72913,4.65454 -0.90638,-0.0714 -1.79444,-0.13916 -2.66907,-0.20569 -1.03393,-0.0794 -2.04833,-0.15809 -3.04748,-0.23681 0,0 0,0 0,0 z" />
        <path
           inkscape:connector-curvature="0"
           id="path3078"
           class="skin"
           style="fill-opacity:1;fill-rule:nonzero;stroke:none"
           d="m 332.36162,143.8202 c 0.78797,-1.85364 1.61867,-3.59436 2.39442,-4.9115 0.36621,-0.62378 0.66283,-1.11878 0.85327,-1.42761 0.25024,0.41077 0.58533,1.09253 0.97961,1.97448 0.61035,1.3678 1.23902,3.11524 1.82984,5.07385 -2.01905,-0.19775 -4.01917,-0.42541 -6.05714,-0.70922 0,0 0,0 0,0 z" />
        <path
           inkscape:connector-curvature="0"
           id="path3080"
           class="skin"
           style="fill-opacity:1;fill-rule:nonzero;stroke:none"
           d="m 317.85479,140.85084 c 0.77393,-1.79809 1.58265,-3.46253 2.32666,-4.70093 0.32837,-0.54687 0.59205,-0.98266 0.766,-1.26404 0.27099,0.4425 0.6372,1.19508 1.06384,2.1759 0.62256,1.42823 1.25915,3.23914 1.85486,5.25147 -1.91224,-0.41443 -3.90443,-0.89599 -6.01136,-1.4624 0,0 0,0 0,0 z" />
        <path
           inkscape:connector-curvature="0"
           id="path3082"
           class="skin"
           style="fill-opacity:1;fill-rule:nonzero;stroke:none"
           d="m 308.45477,137.45301 c 1.16943,-1.44836 2.31323,-2.74352 3.28247,-3.656 0.39917,-0.37597 0.72448,-0.67932 0.94605,-0.88562 0.11537,0.41137 0.24291,1.03882 0.37841,1.83288 0.22827,1.34155 0.38209,3.01392 0.46142,4.87 -0.4132,-0.12387 -0.82885,-0.25207 -1.25061,-0.3827 -1.29882,-0.40405 -2.56896,-1.01073 -3.81774,-1.77856 0,0 0,0 0,0 z" />
      </g>
    </g>
  </g>
</svg>
